<svg xmlns="http://www.w3.org/2000/svg" width="32" height="32" viewBox="0 0 32 32" fill="none" stroke="currentColor" stroke-width="0.5" stroke-linecap="round" stroke-linejoin="round">
<path d="M11.8,11.2c0.2,4.3,0.5,8.5,0.7,12.8"/>
<line x1="16" y1="11.2" x2="16" y2="24"/>
<line x1="20.1" y1="11.2" x2="19.4" y2="24"/>
<path d="M8.4,8.7l1.4,16.4c0,0.5,0.5,0.9,0.9,0.9h10.6c0.5,0,0.9-0.4,0.9-0.9l1.4-16.4H8.4z"/>
<path d="M7.2,6.6C7.4,6.3,7.7,6,8.1,6h5.3h10.4c0.4,0,0.8,0.3,0.9,0.6l0.7,2.1H6.5L7.2,6.6z"/>
<path d="M13.5,6V4.1c0-0.5,0.4-0.9,0.9-0.9h3.2c0.5,0,0.9,0.4,0.9,0.9V6H13.5z"/>
</svg>
