<?xml version="1.0" encoding="UTF-8"?><svg id="a" xmlns="http://www.w3.org/2000/svg" viewBox="0 0 32 32"><path d="M26.5,32H5.5c-1.9297,0-3.5-1.5703-3.5-3.5V7.5c0-1.9297,1.5703-3.5,3.5-3.5H26.5c1.9297,0,3.5,1.5703,3.5,3.5V28.5c0,1.9297-1.5703,3.5-3.5,3.5ZM5.5,7c-.2754,0-.5,.2241-.5,.5V28.5c0,.2759,.2246,.5,.5,.5H26.5c.2754,0,.5-.2241,.5-.5V7.5c0-.2759-.2246-.5-.5-.5H5.5Z"/><path d="M9,7c-.8281,0-1.5-.6714-1.5-1.5V1.5c0-.8286,.6719-1.5,1.5-1.5s1.5,.6714,1.5,1.5V5.5c0,.8286-.6719,1.5-1.5,1.5Z"/><path d="M23,7c-.8281,0-1.5-.6714-1.5-1.5V1.5c0-.8286,.6719-1.5,1.5-1.5s1.5,.6714,1.5,1.5V5.5c0,.8286-.6719,1.5-1.5,1.5Z"/><path d="M28.5,15H3.5c-.8281,0-1.5-.6714-1.5-1.5s.6719-1.5,1.5-1.5H28.5c.8281,0,1.5,.6714,1.5,1.5s-.6719,1.5-1.5,1.5Z"/><circle cx="23" cy="19" r="2"/></svg>