<?xml version="1.0" encoding="UTF-8"?><svg id="a" xmlns="http://www.w3.org/2000/svg" viewBox="0 0 32 32"><path d="M28.2363,29.7803H3.2363c-1.9297,0-3.5-1.5703-3.5-3.5V5.2803C-.2637,3.3506,1.3066,1.7803,3.2363,1.7803h8.0488c.7178,0,1.4014.3091,1.875.8477l2.7529,3.1187h12.3232c1.9297,0,3.5,1.5703,3.5,3.5v17.0337c0,1.9297-1.5703,3.5-3.5,3.5ZM3.2363,4.7803c-.2754,0-.5.2241-.5.5v21c0,.2759.2246.5.5.5h25c.2754,0,.5-.2241.5-.5V9.2466c0-.2759-.2246-.5-.5-.5h-12.5488c-.7178,0-1.4004-.3086-1.875-.8462l-2.7539-3.1201H3.2363Z"/><path d="M16,24.5c-.3838,0-.7676-.1465-1.0605-.4395l-4-4c-.5859-.5854-.5859-1.5356,0-2.1211.5859-.5859,1.5352-.5859,2.1211,0l2.9395,2.9395,2.9395-2.9395c.5859-.5859,1.5352-.5859,2.1211,0,.5859.5854.5859,1.5356,0,2.1211l-4,4c-.293.293-.6768.4395-1.0605.4395Z"/><path d="M16,24.5c-.8281,0-1.5-.6714-1.5-1.5v-10c0-.8286.6719-1.5,1.5-1.5s1.5.6714,1.5,1.5v10c0,.8286-.6719,1.5-1.5,1.5Z"/></svg>