<?xml version="1.0" encoding="UTF-8"?><svg id="a" xmlns="http://www.w3.org/2000/svg" viewBox="0 0 32 32"><path d="M7.5,9H3.5c-.8281,0-1.5-.6719-1.5-1.5s.6719-1.5,1.5-1.5h4c.8281,0,1.5.6719,1.5,1.5s-.6719,1.5-1.5,1.5Z" fill="#000" stroke-width="0"/><path d="M12.5,17.5H3.5c-.8281,0-1.5-.6719-1.5-1.5s.6719-1.5,1.5-1.5h9c.8281,0,1.5.6719,1.5,1.5s-.6719,1.5-1.5,1.5Z" fill="#000" stroke-width="0"/><path d="M17.5,26H3.5c-.8281,0-1.5-.6719-1.5-1.5s.6719-1.5,1.5-1.5h14c.8281,0,1.5.6719,1.5,1.5s-.6719,1.5-1.5,1.5Z" fill="#000" stroke-width="0"/><path d="M24.5,26c-.8281,0-1.5-.6719-1.5-1.5V7.5c0-.8281.6719-1.5,1.5-1.5s1.5.6719,1.5,1.5v17c0,.8281-.6719,1.5-1.5,1.5Z" fill="#000" stroke-width="0"/><path d="M28.499,12c-.3135,0-.6289-.0977-.8994-.2998l-3.0996-2.3252-3.0996,2.3252c-.6631.4971-1.6025.3633-2.1006-.2998-.4971-.6631-.3623-1.6035.2998-2.1006l4-3c.5332-.4004,1.2676-.4004,1.8008,0l4,3c.6621.4971.7969,1.4375.2998,2.1006-.2949.3926-.7451.5996-1.2012.5996Z" fill="#000" stroke-width="0"/></svg>