<?xml version="1.0" encoding="UTF-8"?><svg id="a" xmlns="http://www.w3.org/2000/svg" viewBox="0 0 32 32"><path d="M7.5,9H3.5c-.83,0-1.5-.67-1.5-1.5s.67-1.5,1.5-1.5H7.5c.83,0,1.5,.67,1.5,1.5s-.67,1.5-1.5,1.5Z"/><path d="M12.5,17.5H3.5c-.83,0-1.5-.67-1.5-1.5s.67-1.5,1.5-1.5H12.5c.83,0,1.5,.67,1.5,1.5s-.67,1.5-1.5,1.5Z"/><path d="M17.5,26H3.5c-.83,0-1.5-.67-1.5-1.5s.67-1.5,1.5-1.5h14c.83,0,1.5,.67,1.5,1.5s-.67,1.5-1.5,1.5Z"/><path d="M24.5,26c-.83,0-1.5-.67-1.5-1.5V7.5c0-.83,.67-1.5,1.5-1.5s1.5,.67,1.5,1.5V24.5c0,.83-.67,1.5-1.5,1.5Z"/><path d="M28.5,12c-.31,0-.63-.1-.9-.3l-3.1-2.33-3.1,2.33c-.66,.5-1.6,.36-2.1-.3-.5-.66-.36-1.6,.3-2.1l4-3c.53-.4,1.27-.4,1.8,0l4,3c.66,.5,.8,1.44,.3,2.1-.29,.39-.75,.6-1.2,.6Z"/></svg>