<?xml version="1.0" encoding="UTF-8"?><svg id="a" xmlns="http://www.w3.org/2000/svg" viewBox="0 0 32 32"><path d="M16,18.5c-2.7568,0-5-2.2432-5-5V5.5c0-2.7568,2.2432-5,5-5s5,2.2432,5,5v8c0,2.7568-2.2432,5-5,5ZM16,3.5c-1.1025,0-2,.897-2,2v8c0,1.1025.8975,2,2,2s2-.8975,2-2V5.5c0-1.103-.8975-2-2-2Z"/><path d="M16,31.5c-.8281,0-1.5-.6719-1.5-1.5v-7.5c0-.8281.6719-1.5,1.5-1.5s1.5.6719,1.5,1.5v7.5c0,.8281-.6719,1.5-1.5,1.5Z"/><path d="M20.5,31.5h-9c-.8281,0-1.5-.6719-1.5-1.5s.6719-1.5,1.5-1.5h9c.8281,0,1.5.6719,1.5,1.5s-.6719,1.5-1.5,1.5Z"/><path d="M16.0098,24c-5.5283,0-10.0098-4.4814-10.0098-9.9902,0-.8281.6719-1.5049,1.5-1.5049s1.5.667,1.5,1.4951v.0098c0,3.8545,3.1357,6.9902,6.9902,6.9902,3.874,0,7.0098-3.1357,7.0098-6.9902,0-.8281.6719-1.5049,1.5-1.5049s1.5.667,1.5,1.4951c0,5.5186-4.4814,10-9.9902,10Z"/></svg>