<?xml version="1.0" encoding="UTF-8"?><svg id="a" xmlns="http://www.w3.org/2000/svg" viewBox="0 0 32 32"><path d="M29,26H3c-.56,0-1.07-.31-1.33-.8-.26-.49-.23-1.09,.09-1.55l4.74-6.93v-7.23c0-2.62,1.09-5.14,3-6.93C11.44,.75,13.97-.15,16.63,.02c4.97,.32,8.87,4.61,8.87,9.75v6.95l4.74,6.93c.31,.46,.35,1.05,.09,1.55-.26,.49-.77,.8-1.33,.8Zm-23.16-3H26.16l-3.22-4.71c-.28-.41-.44-.9-.44-1.41v-7.11c0-3.57-2.66-6.54-6.06-6.76-1.82-.12-3.56,.5-4.88,1.74-1.33,1.24-2.06,2.93-2.06,4.74v7.38c0,.51-.15,1-.44,1.41l-3.22,4.71Zm19.57-6.4h0Z"/><path d="M16,28h4c0,2.19-1.81,4-4,4s-4-1.8-4-4h4Z"/></svg>