<?xml version="1.0" encoding="UTF-8"?><svg id="a" xmlns="http://www.w3.org/2000/svg" viewBox="0 0 32 32"><path d="M29,26H3c-.5566,0-1.0674-.3076-1.3267-.7998-.2598-.4922-.2256-1.0879.0889-1.5469l4.7378-6.9258v-7.2275c0-2.6157,1.0947-5.1426,3.0039-6.9321C11.4399.7529,13.9702-.1504,16.6289.02c4.9746.3223,8.8711,4.6069,8.8711,9.7544v6.9531l4.7383,6.9258c.3135.459.3477,1.0547.0889,1.5469-.2598.4922-.7705.7998-1.3271.7998ZM5.8438,23h20.3125l-3.2197-4.7061c-.2842-.4141-.4365-.9033-.4365-1.4111v-7.1084c0-3.5708-2.6641-6.54-6.0645-6.7603-1.8164-.1216-3.5552.5005-4.8799,1.7427-1.3257,1.2427-2.0557,2.9268-2.0557,4.7432v7.3828c0,.5068-.1514.9951-.4375,1.4121l-3.2188,4.7051ZM25.4102,16.5967l.002.002c-.001,0-.001-.001-.002-.002Z" fill="#000" stroke-width="0"/><path d="M16,28.005l4-.005c0,.0017,0,.0033,0,.005,0,2.1916-1.8057,3.995-4,3.995s-4-1.8034-4-3.995c0-.001,0-.002,0-.003l4,.003Z" fill="#000" stroke-width="0"/></svg>