<?xml version="1.0" encoding="UTF-8"?><svg id="a" xmlns="http://www.w3.org/2000/svg" viewBox="0 0 32 32"><path d="M9,19.5c-.8286,0-1.5-.6714-1.5-1.5V7c0-.8286,.6714-1.5,1.5-1.5s1.5,.6714,1.5,1.5v11c0,.8286-.6714,1.5-1.5,1.5Z"/><path d="M16,15.5c-.8286,0-1.5-.6714-1.5-1.5V7c0-.8286,.6714-1.5,1.5-1.5s1.5,.6714,1.5,1.5v7c0,.8286-.6714,1.5-1.5,1.5Z"/><path d="M23,23.5c-.8286,0-1.5-.6714-1.5-1.5V7c0-.8286,.6714-1.5,1.5-1.5s1.5,.6714,1.5,1.5v15c0,.8286-.6714,1.5-1.5,1.5Z"/><path d="M28.5,32H3.5c-1.9297,0-3.5-1.5703-3.5-3.5V3.5C0,1.5703,1.5703,0,3.5,0H28.5c1.9297,0,3.5,1.5703,3.5,3.5V28.5c0,1.9297-1.5703,3.5-3.5,3.5ZM3.5,3c-.2759,0-.5,.2241-.5,.5V28.5c0,.2759,.2241,.5,.5,.5H28.5c.2759,0,.5-.2241,.5-.5V3.5c0-.2759-.2241-.5-.5-.5H3.5Z"/></svg>