<?xml version="1.0" encoding="UTF-8"?><svg id="a" xmlns="http://www.w3.org/2000/svg" viewBox="0 0 32 32"><path d="M26.5,32H5.5c-1.9297,0-3.5-1.5703-3.5-3.5V7.5c0-1.9297,1.5703-3.5,3.5-3.5h21c1.9297,0,3.5,1.5703,3.5,3.5v21c0,1.9297-1.5703,3.5-3.5,3.5ZM5.5,7c-.2754,0-.5.2241-.5.5v21c0,.2759.2246.5.5.5h21c.2754,0,.5-.2241.5-.5V7.5c0-.2759-.2246-.5-.5-.5H5.5Z" fill="#000" stroke-width="0"/><path d="M9,7c-.8281,0-1.5-.6714-1.5-1.5V1.5c0-.8286.6719-1.5,1.5-1.5s1.5.6714,1.5,1.5v4c0,.8286-.6719,1.5-1.5,1.5Z" fill="#000" stroke-width="0"/><path d="M23,7c-.8281,0-1.5-.6714-1.5-1.5V1.5c0-.8286.6719-1.5,1.5-1.5s1.5.6714,1.5,1.5v4c0,.8286-.6719,1.5-1.5,1.5Z" fill="#000" stroke-width="0"/><path d="M28.5,15H3.5c-.8281,0-1.5-.6714-1.5-1.5s.6719-1.5,1.5-1.5h25c.8281,0,1.5.6714,1.5,1.5s-.6719,1.5-1.5,1.5Z" fill="#000" stroke-width="0"/></svg>