<?xml version="1.0" encoding="UTF-8"?><svg id="a" xmlns="http://www.w3.org/2000/svg" viewBox="0 0 32 32"><path d="M16,32C7.1777,32,0,24.8223,0,16S7.1777,0,16,0s16,7.1777,16,16-7.1777,16-16,16ZM16,3c-7.168,0-13,5.8315-13,13s5.832,13,13,13,13-5.8315,13-13S23.168,3,16,3Z" fill="#000" stroke-width="0"/><path d="M13,21.5c-.8281,0-1.5-.6714-1.5-1.5v-8c0-.8286.6719-1.5,1.5-1.5s1.5.6714,1.5,1.5v8c0,.8286-.6719,1.5-1.5,1.5Z" fill="#000" stroke-width="0"/><path d="M19,21.5c-.8281,0-1.5-.6714-1.5-1.5v-8c0-.8286.6719-1.5,1.5-1.5s1.5.6714,1.5,1.5v8c0,.8286-.6719,1.5-1.5,1.5Z" fill="#000" stroke-width="0"/></svg>