<?xml version="1.0" encoding="UTF-8"?><svg id="a" xmlns="http://www.w3.org/2000/svg" viewBox="0 0 32 32"><path d="M16,0C7.1635,0,0,7.1635,0,16s7.1635,16,16,16,16-7.1635,16-16S24.8365,0,16,0ZM22.4141,19.5859c.7812.7812.7812,2.0469,0,2.8281-.3906.3906-.9023.5859-1.4141.5859s-1.0234-.1953-1.4141-.5859l-3.5859-3.5859-3.5859,3.5859c-.3906.3906-.9023.5859-1.4141.5859s-1.0234-.1953-1.4141-.5859c-.7812-.7812-.7812-2.0469,0-2.8281l3.5859-3.5859-3.5859-3.5859c-.7812-.7812-.7812-2.0469,0-2.8281s2.0469-.7812,2.8281,0l3.5859,3.5859,3.5859-3.5859c.7812-.7812,2.0469-.7812,2.8281,0s.7812,2.0469,0,2.8281l-3.5859,3.5859,3.5859,3.5859Z" fill="#000" stroke-width="0"/></svg>