<?xml version="1.0" encoding="UTF-8"?><svg id="a" xmlns="http://www.w3.org/2000/svg" viewBox="0 0 32 32"><path d="M16,32C7.18,32,0,24.82,0,16S7.18,0,16,0s16,7.18,16,16-7.18,16-16,16Zm0-29c-7.17,0-13,5.83-13,13s5.83,13,13,13,13-5.83,13-13S23.17,3,16,3Z"/><g><path d="M21,22.5c-.38,0-.77-.15-1.06-.44L9.94,12.06c-.59-.59-.59-1.54,0-2.12s1.54-.59,2.12,0l10,10c.59,.59,.59,1.54,0,2.12-.29,.29-.68,.44-1.06,.44Z"/><path d="M11,22.5c-.38,0-.77-.15-1.06-.44-.59-.59-.59-1.54,0-2.12l10-10c.59-.59,1.54-.59,2.12,0s.59,1.54,0,2.12l-10,10c-.29,.29-.68,.44-1.06,.44Z"/></g></svg>