<?xml version="1.0" encoding="UTF-8"?><svg id="a" xmlns="http://www.w3.org/2000/svg" viewBox="0 0 32 32"><path d="M16,32C7.1777,32,0,24.8223,0,16S7.1777,0,16,0s16,7.1777,16,16-7.1777,16-16,16ZM16,3c-7.168,0-13,5.832-13,13s5.832,13,13,13,13-5.832,13-13S23.168,3,16,3Z" fill="#000" stroke-width="0"/><path d="M21,22.5c-.3838,0-.7676-.1465-1.0605-.4395l-10-10c-.5859-.5859-.5859-1.5352,0-2.1211s1.5352-.5859,2.1211,0l10,10c.5859.5859.5859,1.5352,0,2.1211-.293.293-.6768.4395-1.0605.4395Z" fill="#000" stroke-width="0"/><path d="M11,22.5c-.3838,0-.7676-.1465-1.0605-.4395-.5859-.5859-.5859-1.5352,0-2.1211l10-10c.5859-.5859,1.5352-.5859,2.1211,0s.5859,1.5352,0,2.1211l-10,10c-.293.293-.6768.4395-1.0605.4395Z" fill="#000" stroke-width="0"/></svg>