<?xml version="1.0" encoding="UTF-8"?><svg id="a" xmlns="http://www.w3.org/2000/svg" viewBox="0 0 32 32"><path d="M16,32C7.1777,32,0,24.8223,0,16S7.1777,0,16,0s16,7.1777,16,16-7.1777,16-16,16ZM16,3c-7.168,0-13,5.832-13,13s5.832,13,13,13,13-5.832,13-13S23.168,3,16,3Z" fill="#000" stroke-width="0"/><path d="M22.5,17.5h-13c-.8281,0-1.5-.6719-1.5-1.5s.6719-1.5,1.5-1.5h13c.8281,0,1.5.6719,1.5,1.5s-.6719,1.5-1.5,1.5Z" fill="#000" stroke-width="0"/><path d="M16,24c-.8281,0-1.5-.6719-1.5-1.5v-13c0-.8281.6719-1.5,1.5-1.5s1.5.6719,1.5,1.5v13c0,.8281-.6719,1.5-1.5,1.5Z" fill="#000" stroke-width="0"/></svg>