<?xml version="1.0" encoding="UTF-8"?><svg id="a" xmlns="http://www.w3.org/2000/svg" viewBox="0 0 32 32"><path d="M16,32c-7.9951,0-14.5-6.5049-14.5-14.5S8.0049,3,16,3s14.5,6.5049,14.5,14.5-6.5049,14.5-14.5,14.5ZM16,6c-6.3413,0-11.5,5.1587-11.5,11.5s5.1587,11.5,11.5,11.5,11.5-5.1587,11.5-11.5-5.1592-11.5-11.5-11.5Z" fill="#000" stroke-width="0"/><path d="M19.999,21.5c-.2725,0-.5469-.0732-.7939-.228l-4-2.5c-.4385-.2739-.7051-.7549-.7051-1.272v-6.5c0-.8286.6719-1.5,1.5-1.5s1.5.6714,1.5,1.5v5.6685l3.2949,2.0596c.7021.439.916,1.3643.4775,2.0669-.2852.4556-.7734.7051-1.2734.7051Z" fill="#000" stroke-width="0"/></svg>