<?xml version="1.0" encoding="UTF-8"?><svg id="a" xmlns="http://www.w3.org/2000/svg" viewBox="0 0 32 32"><path d="M10.5,26.5C4.71,26.5,0,21.79,0,16S4.71,5.5,10.5,5.5s10.5,4.71,10.5,10.5-4.71,10.5-10.5,10.5Zm0-18c-4.1357,0-7.5,3.3643-7.5,7.5s3.3643,7.5,7.5,7.5,7.5-3.3643,7.5-7.5-3.3643-7.5-7.5-7.5Z"/><g><path d="M17.2607,25.4395c-.2393,0-.4805-.0566-.7061-.1768-.5156-.2754-1.0107-.5957-1.4727-.9512-.6562-.5059-.7773-1.4482-.2725-2.1045,.5068-.6553,1.4463-.7773,2.1045-.2725,.3301,.2549,.6855,.4844,1.0547,.6816,.7305,.3906,1.0068,1.2998,.6162,2.0303-.2705,.5059-.7891,.793-1.3242,.793Z"/><path d="M24.0693,26.1211c-.6436,0-1.2393-.418-1.4346-1.0664-.2402-.793,.209-1.6299,1.002-1.8691,.7979-.2412,1.5498-.6152,2.2344-1.1104,.6709-.4863,1.6094-.3369,2.0947,.335,.4863,.6709,.3359,1.6094-.335,2.0947-.9561,.6924-2.0088,1.2148-3.127,1.5518-.1445,.0439-.291,.0645-.4346,.0645Zm6.3066-7.1279c-.083,0-.167-.0068-.252-.0205-.8164-.1387-1.3672-.9131-1.2295-1.7295,.0693-.4072,.1045-.8271,.1055-1.2461,0-.416-.0352-.8359-.1045-1.2432-.1396-.8164,.4102-1.5918,1.2266-1.7305,.8125-.1387,1.5918,.4102,1.7305,1.2266,.0977,.5742,.1475,1.1621,.1475,1.75-.001,.5869-.0508,1.1729-.1465,1.7432-.124,.7324-.7588,1.25-1.4775,1.25Zm-3.6318-8.7881c-.3047,0-.6123-.0928-.8779-.2852-.6836-.4941-1.4346-.8662-2.2334-1.1064-.7939-.2383-1.2432-1.0752-1.0049-1.8687,.2393-.7939,1.0801-1.2417,1.8682-1.0044,1.1211,.3374,2.1738,.8584,3.1279,1.5498,.6719,.4854,.8223,1.4229,.3359,2.0938-.293,.4062-.751,.6211-1.2158,.6211Z"/><path d="M15.9932,10.3828c-.4482,0-.8906-.1992-1.1865-.5811-.5078-.6553-.3877-1.5967,.2666-2.1045,.4648-.3604,.9619-.6826,1.4756-.9565,.7285-.3892,1.6396-.1133,2.0293,.6177,.3896,.7314,.1133,1.6396-.6172,2.0293-.3652,.1953-.7188,.4238-1.0498,.6807-.2734,.2119-.5967,.3145-.918,.3145Z"/></g></svg>