<?xml version="1.0" encoding="UTF-8"?><svg id="a" xmlns="http://www.w3.org/2000/svg" viewBox="0 0 32 32"><path d="M10.5,26.5C4.71,26.5,0,21.79,0,16S4.71,5.5,10.5,5.5s10.5,4.71,10.5,10.5-4.71,10.5-10.5,10.5Zm0-18c-4.14,0-7.5,3.36-7.5,7.5s3.36,7.5,7.5,7.5,7.5-3.36,7.5-7.5-3.36-7.5-7.5-7.5Z"/><g><path d="M17.26,25.44c-.24,0-.48-.06-.71-.18-.52-.28-1.01-.6-1.47-.95-.66-.51-.78-1.45-.27-2.1,.51-.66,1.45-.78,2.1-.27,.33,.25,.69,.48,1.05,.68,.73,.39,1.01,1.3,.62,2.03-.27,.51-.79,.79-1.32,.79Z"/><path d="M24.07,26.12c-.64,0-1.24-.42-1.43-1.07-.24-.79,.21-1.63,1-1.87,.8-.24,1.55-.62,2.23-1.11,.67-.49,1.61-.34,2.09,.33,.49,.67,.34,1.61-.33,2.09-.96,.69-2.01,1.21-3.13,1.55-.14,.04-.29,.06-.43,.06Zm6.31-7.13c-.08,0-.17,0-.25-.02-.82-.14-1.37-.91-1.23-1.73,.07-.41,.1-.83,.11-1.25,0-.42-.04-.84-.1-1.24-.14-.82,.41-1.59,1.23-1.73,.81-.14,1.59,.41,1.73,1.23,.1,.57,.15,1.16,.15,1.75,0,.59-.05,1.17-.15,1.74-.12,.73-.76,1.25-1.48,1.25Zm-3.63-8.79c-.3,0-.61-.09-.88-.29-.68-.49-1.43-.87-2.23-1.11-.79-.24-1.24-1.08-1-1.87,.24-.79,1.08-1.24,1.87-1,1.12,.34,2.17,.86,3.13,1.55,.67,.49,.82,1.42,.34,2.09-.29,.41-.75,.62-1.22,.62Z"/><path d="M15.99,10.38c-.45,0-.89-.2-1.19-.58-.51-.66-.39-1.6,.27-2.1,.46-.36,.96-.68,1.48-.96,.73-.39,1.64-.11,2.03,.62,.39,.73,.11,1.64-.62,2.03-.37,.2-.72,.42-1.05,.68-.27,.21-.6,.31-.92,.31Z"/></g></svg>