<?xml version="1.0" encoding="UTF-8"?><svg id="a" xmlns="http://www.w3.org/2000/svg" viewBox="0 0 32 32"><path d="M9,30c-.2285,0-.459-.0518-.6709-.1582-.5078-.2539-.8291-.7734-.8291-1.3418v-4.5h-2c-1.9297,0-3.5-1.5703-3.5-3.5V5.5c0-1.9297,1.5703-3.5,3.5-3.5H26.5c1.9297,0,3.5,1.5703,3.5,3.5v15c0,1.9297-1.5703,3.5-3.5,3.5h-9l-7.5996,5.7002c-.2646,.1982-.582,.2998-.9004,.2998ZM5.5,5c-.2754,0-.5,.2246-.5,.5v15c0,.2754,.2246,.5,.5,.5h3.5c.8281,0,1.5,.6719,1.5,1.5v3l5.5996-4.2002c.2598-.1943,.5762-.2998,.9004-.2998h9.5c.2754,0,.5-.2246,.5-.5V5.5c0-.2754-.2246-.5-.5-.5H5.5Z"/></svg>