<?xml version="1.0" encoding="UTF-8"?><svg id="a" xmlns="http://www.w3.org/2000/svg" viewBox="0 0 32 32"><path d="M23.5,25c-.3838,0-.7676-.1465-1.0605-.4395L7.4395,9.5605c-.5859-.5859-.5859-1.5352,0-2.1211s1.5352-.5859,2.1211,0l15,15c.5859,.5859,.5859,1.5352,0,2.1211-.293,.293-.6768,.4395-1.0605,.4395Z"/><path d="M8.5,25c-.3838,0-.7676-.1465-1.0605-.4395-.5859-.5859-.5859-1.5352,0-2.1211L22.4395,7.4395c.5859-.5859,1.5352-.5859,2.1211,0s.5859,1.5352,0,2.1211l-15,15c-.293,.293-.6768,.4395-1.0605,.4395Z"/></svg>