<?xml version="1.0" encoding="UTF-8"?><svg id="a" xmlns="http://www.w3.org/2000/svg" viewBox="0 0 32 32"><path d="M16.75,16.6643c-.4125,.1846-1.0875,.1846-1.5,0-.4125-.1846-.75-1.6143-.75-2.1643v-3.5c0-.55,.184-1.4107,.4088-1.9126,0,0,.2631-.5874,1.0912-.5874s1.0912,.5874,1.0912,.5874c.2248,.5019,.4088,1.3626,.4088,1.9126v3.5c0,.55-.3375,1.9797-.75,2.1643Z"/><circle cx="16" cy="21" r="2"/><path d="M22.3955,31.9209c-.2143,.0435-.8396,.0791-1.3896,.0791H10.9941c-.55,0-1.1753-.0356-1.3896-.0791s-.9891-.6785-1.378-1.0675L1.1466,23.7735c-.3889-.3889-.806-.8562-.9268-1.0384s-.2197-1.1792-.2197-1.7292V10.9941c0-.55,.0356-1.1753,.0791-1.3896s.6785-.9891,1.0675-1.378L8.2265,1.1466c.3889-.3889,.8563-.806,1.0386-.9268s1.179-.2197,1.729-.2197h10.0117c.55,0,1.1753,.0356,1.3896,.0791s.9891,.6785,1.378,1.0675l7.0799,7.0799c.3889,.3889,.806,.8562,.9268,1.0384s.2197,1.1792,.2197,1.7292v10.0117c0,.55-.0356,1.1753-.0791,1.3896s-.6785,.9891-1.0675,1.378l-7.0799,7.0799c-.3889,.3889-1.1637,1.024-1.378,1.0675Zm-12.4874-3.628c.3889,.3889,1.1571,.7071,1.7071,.7071h8.7695c.55,0,1.3182-.3182,1.7071-.7071l6.201-6.201c.3889-.3889,.7071-1.1571,.7071-1.7071V11.6152c0-.55-.3182-1.3182-.7071-1.7071l-6.201-6.201c-.3889-.3889-1.1571-.7071-1.7071-.7071H11.6152c-.55,0-1.3182,.3182-1.7071,.7071L3.7071,9.9081c-.3889,.3889-.7071,1.1571-.7071,1.7071v8.7695c0,.55,.3182,1.3182,.7071,1.7071l6.201,6.201Z"/></svg>