<?xml version="1.0" encoding="UTF-8"?><svg id="a" xmlns="http://www.w3.org/2000/svg" viewBox="0 0 32 32"><path d="M16.75,16.66c-.41,.18-1.09,.18-1.5,0s-.75-1.61-.75-2.16v-3.5c0-.55,.18-1.41,.41-1.91,0,0,.26-.59,1.09-.59s1.09,.59,1.09,.59c.22,.5,.41,1.36,.41,1.91v3.5c0,.55-.34,1.98-.75,2.16Z"/><circle cx="16" cy="21" r="2"/><path d="M22.4,31.92c-.21,.04-.84,.08-1.39,.08H10.99c-.55,0-1.18-.04-1.39-.08s-.99-.68-1.38-1.07L1.15,23.77c-.39-.39-.81-.86-.93-1.04s-.22-1.18-.22-1.73V10.99c0-.55,.04-1.18,.08-1.39s.68-.99,1.07-1.38L8.23,1.15c.39-.39,.86-.81,1.04-.93s1.18-.22,1.73-.22h10.01c.55,0,1.18,.04,1.39,.08s.99,.68,1.38,1.07l7.08,7.08c.39,.39,.81,.86,.93,1.04s.22,1.18,.22,1.73v10.01c0,.55-.04,1.18-.08,1.39s-.68,.99-1.07,1.38l-7.08,7.08c-.39,.39-1.16,1.02-1.38,1.07Zm-12.49-3.63c.39,.39,1.16,.71,1.71,.71h8.77c.55,0,1.32-.32,1.71-.71l6.2-6.2c.39-.39,.71-1.16,.71-1.71V11.62c0-.55-.32-1.32-.71-1.71l-6.2-6.2c-.39-.39-1.16-.71-1.71-.71H11.62c-.55,0-1.32,.32-1.71,.71L3.71,9.91c-.39,.39-.71,1.16-.71,1.71v8.77c0,.55,.32,1.32,.71,1.71l6.2,6.2Z"/></svg>