<?xml version="1.0" encoding="UTF-8"?><svg id="a" xmlns="http://www.w3.org/2000/svg" viewBox="0 0 32 32"><path d="M7.5,26H3.5c-.8281,0-1.5-.6719-1.5-1.5s.6719-1.5,1.5-1.5h4c.8281,0,1.5.6719,1.5,1.5s-.6719,1.5-1.5,1.5Z" fill="#000" stroke-width="0"/><path d="M12.5,17.5H3.5c-.8281,0-1.5-.6719-1.5-1.5s.6719-1.5,1.5-1.5h9c.8281,0,1.5.6719,1.5,1.5s-.6719,1.5-1.5,1.5Z" fill="#000" stroke-width="0"/><path d="M17.5,9H3.5c-.8281,0-1.5-.6719-1.5-1.5s.6719-1.5,1.5-1.5h14c.8281,0,1.5.6719,1.5,1.5s-.6719,1.5-1.5,1.5Z" fill="#000" stroke-width="0"/><path d="M24.5,26c-.8281,0-1.5-.6719-1.5-1.5V7.5c0-.8281.6719-1.5,1.5-1.5s1.5.6719,1.5,1.5v17c0,.8281-.6719,1.5-1.5,1.5Z" fill="#000" stroke-width="0"/><path d="M24.5,26c-.3164,0-.6338-.0996-.9004-.2998l-4-3c-.6621-.4971-.7969-1.4375-.2998-2.1006.498-.6621,1.4365-.7949,2.1006-.2998l3.0996,2.3252,3.0996-2.3252c.6641-.4951,1.6025-.3623,2.1006.2998.4971.6631.3623,1.6035-.2998,2.1006l-4,3c-.2666.2002-.584.2998-.9004.2998Z" fill="#000" stroke-width="0"/></svg>