<?xml version="1.0" encoding="UTF-8"?><svg id="a" xmlns="http://www.w3.org/2000/svg" viewBox="0 0 32 32"><path d="M3.45,30.05c-.39,0-.77-.15-1.06-.44-.42-.42-.55-1.05-.34-1.61l3.18-8.13c.08-.19,.19-.37,.34-.51L17.94,6.98c.59-.59,1.54-.59,2.12,0l4.95,4.95c.59,.59,.59,1.54,0,2.12l-12.37,12.37c-.15,.15-.32,.26-.51,.34l-8.13,3.18c-.18,.07-.36,.1-.55,.1Zm4.46-8.79l-1.82,4.65,4.65-1.82,11.09-11.09-2.83-2.83L7.91,21.26Z"/><path d="M25.02,14.06l-2.12-2.12,3.18-3.18c.13-.13,.14-.28,.14-.35s-.02-.23-.14-.35l-2.12-2.12c-.13-.13-.28-.14-.35-.14s-.23,.02-.35,.14l-3.18,3.18-2.12-2.12,3.18-3.18c1.32-1.32,3.63-1.32,4.95,0l2.12,2.12c.66,.66,1.02,1.54,1.02,2.47s-.36,1.82-1.02,2.48l-3.18,3.18Z"/></svg>