<?xml version="1.0" encoding="UTF-8"?><svg id="a" xmlns="http://www.w3.org/2000/svg" viewBox="0 0 32 32"><path d="M3.4492,30.0508c-.3906,0-.7744-.1523-1.0605-.4395-.4219-.4209-.5537-1.0518-.3359-1.6074l3.1816-8.1318c.0752-.1924.1895-.3672.3359-.5137l12.374-12.374c.5859-.5859,1.5352-.5859,2.1211,0l4.9502,4.9502c.5859.5859.5859,1.5352,0,2.1211l-12.374,12.374c-.1465.1465-.3213.2607-.5137.3359l-8.1318,3.1816c-.1777.0693-.3633.1035-.5469.1035ZM7.9131,21.2578l-1.8184,4.6475,4.6475-1.8184,11.0918-11.0918-2.8291-2.8291-11.0918,11.0918Z" fill="#000" stroke-width="0"/><path d="M25.0156,14.0557l-2.1211-2.1211,3.1816-3.1826c.126-.126.1445-.2754.1445-.3535s-.0186-.2275-.1436-.3525l-2.1221-2.1221c-.126-.126-.2754-.1445-.3535-.1445s-.2275.0186-.3525.1436l-3.1836,3.1826-2.1211-2.1211,3.1826-3.1816c1.3164-1.3184,3.6318-1.3193,4.9502.001l2.1201,2.1201c.6592.6582,1.0234,1.5381,1.0234,2.4746s-.3643,1.8164-1.0244,2.4756l-3.1807,3.1816Z" fill="#000" stroke-width="0"/></svg>