<?xml version="1.0" encoding="UTF-8"?><svg id="a" xmlns="http://www.w3.org/2000/svg" viewBox="0 0 32 32"><path d="M24.5,32H7.5c-1.93,0-3.5-1.57-3.5-3.5V3.5c0-1.93,1.57-3.5,3.5-3.5h11c.4,0,.78,.16,1.06,.44l8,8c.28,.28,.44,.66,.44,1.06V28.5c0,1.93-1.57,3.5-3.5,3.5ZM7.5,3c-.28,0-.5,.22-.5,.5V28.5c0,.28,.22,.5,.5,.5H24.5c.28,0,.5-.22,.5-.5V10.12l-7.12-7.12H7.5Z"/><path d="M26.5,12h-7c-1.93,0-3.5-1.57-3.5-3.5V1.5c0-.83,.67-1.5,1.5-1.5s1.5,.67,1.5,1.5v7c0,.28,.22,.5,.5,.5h7c.83,0,1.5,.67,1.5,1.5s-.67,1.5-1.5,1.5Z"/></svg>