<?xml version="1.0" encoding="UTF-8"?><svg id="a" xmlns="http://www.w3.org/2000/svg" viewBox="0 0 32 32"><path d="M24.5,32H7.5c-1.9297,0-3.5-1.5703-3.5-3.5V3.5c0-1.9297,1.5703-3.5,3.5-3.5h11c.3975,0,.7793,.1582,1.0605,.4395l8,8c.2812,.2812,.4395,.6626,.4395,1.0605V28.5c0,1.9297-1.5703,3.5-3.5,3.5ZM7.5,3c-.2754,0-.5,.2241-.5,.5V28.5c0,.2759,.2246,.5,.5,.5H24.5c.2754,0,.5-.2241,.5-.5V10.1211l-7.1211-7.1211H7.5Z"/><path d="M26.5,12h-7c-1.9297,0-3.5-1.5703-3.5-3.5V1.5c0-.8286,.6719-1.5,1.5-1.5s1.5,.6714,1.5,1.5v7c0,.2759,.2246,.5,.5,.5h7c.8281,0,1.5,.6714,1.5,1.5s-.6719,1.5-1.5,1.5Z"/></svg>