<?xml version="1.0" encoding="UTF-8"?><svg id="a" xmlns="http://www.w3.org/2000/svg" viewBox="0 0 32 32"><path d="M19.8431,9.3431c0-.55,.3182-.6818,.7071-.2929l4.2426,4.2426c.3889,.3889,.3889,1.0253,0,1.4142l-4.2426,4.2426c-.3889,.3889-.7071,.2571-.7071-.2929V9.3431Z"/><path d="M6.499,25.0771c-.2354,0-.4727-.0557-.6943-.1719-.7334-.3838-1.0176-1.2881-.6348-2.0215,.2217-.4238,5.5332-10.3838,15.3301-10.3838,.8281,0,1.5,.6719,1.5,1.5s-.6719,1.5-1.5,1.5c-7.9629,0-12.625,8.6865-12.6719,8.7744-.2686,.5107-.79,.8027-1.3291,.8027Z"/></svg>