<?xml version="1.0" encoding="UTF-8"?><svg id="a" xmlns="http://www.w3.org/2000/svg" viewBox="0 0 32 32"><path d="M4.249,24.3164c-.2354,0-.4727-.0557-.6943-.1719-.7334-.3838-1.0176-1.2881-.6348-2.0215.2217-.4238,5.5332-10.3838,15.3301-10.3838.8281,0,1.5.6719,1.5,1.5s-.6719,1.5-1.5,1.5c-7.9629,0-12.625,8.6865-12.6719,8.7744-.2686.5107-.79.8027-1.3291.8027Z"/><path d="M23.75,18.7393c-.3838,0-.7676-.1465-1.0605-.4395-.5859-.5859-.5859-1.5352,0-2.1211l2.9395-2.9395-2.9395-2.9395c-.5859-.5859-.5859-1.5352,0-2.1211s1.5352-.5859,2.1211,0l4,4c.5859.5859.5859,1.5352,0,2.1211l-4,4c-.293.293-.6768.4395-1.0605.4395Z"/><path d="M17.8965,18.6826c-.3838,0-.7676-.1465-1.0605-.4395-.5859-.5859-.5859-1.5352,0-2.1211l2.9395-2.9395-2.9395-2.9395c-.5859-.5859-.5859-1.5352,0-2.1211s1.5352-.5859,2.1211,0l4,4c.5859.5859.5859,1.5352,0,2.1211l-4,4c-.293.293-.6768.4395-1.0605.4395Z"/></svg>