<?xml version="1.0" encoding="UTF-8"?><svg id="a" xmlns="http://www.w3.org/2000/svg" viewBox="0 0 32 32"><path d="M16,22c-3.31,0-6-2.69-6-6s2.69-6,6-6,6,2.69,6,6-2.69,6-6,6Zm0-9c-1.65,0-3,1.35-3,3s1.35,3,3,3,3-1.35,3-3-1.35-3-3-3Z"/><path d="M17,32h-2c-1.14,0-2.31-.76-2.78-1.8l-1.19-2.67c-.09-.21-.45-.61-.65-.72l-.93-.54c-.2-.12-.72-.23-.95-.2l-2.91,.31c-1.14,.12-2.38-.51-2.95-1.5l-1-1.73c-.57-.99-.5-2.38,.18-3.31l1.72-2.36c.14-.19,.3-.69,.3-.93v-1.07c0-.23-.16-.74-.3-.93l-1.72-2.37c-.67-.92-.75-2.31-.18-3.31l1-1.73c.57-.99,1.82-1.62,2.95-1.5l2.91,.31c.23,.02,.75-.08,.95-.2l.93-.54c.2-.12,.56-.51,.65-.72l1.19-2.67c.47-1.05,1.63-1.8,2.78-1.8h2c1.14,0,2.31,.76,2.78,1.8l1.19,2.67c.09,.21,.45,.61,.65,.72l.93,.54c.2,.12,.72,.23,.95,.2l2.91-.31c1.14-.12,2.38,.51,2.95,1.5l1,1.73c.57,.99,.5,2.38-.18,3.31l-1.72,2.36c-.14,.19-.3,.69-.3,.93v1.07c0,.23,.16,.74,.3,.93l1.72,2.37c.67,.92,.75,2.31,.18,3.31l-1,1.73c-.57,.99-1.81,1.62-2.95,1.5l-2.91-.31c-.23-.03-.75,.08-.95,.2l-.93,.54c-.2,.12-.56,.51-.65,.72l-1.19,2.67c-.47,1.05-1.63,1.8-2.78,1.8Zm-2.03-3.03s.06,.03,.08,.03h1.95s.04-.05,.06-.08l1.16-2.62c.35-.79,1.15-1.67,1.89-2.1l.93-.54c.75-.43,1.91-.68,2.77-.59l2.91,.31s.04-.04,.07-.06l.97-1.69s-.02-.06-.03-.09l-1.69-2.32c-.51-.7-.88-1.83-.88-2.69v-1.07c0-.86,.37-2,.88-2.69l1.72-2.36s-.01-.06-.02-.09l-.98-1.68s-.06-.01-.09-.02l-2.85,.31c-.86,.09-2.02-.16-2.77-.59h0l-.93-.54c-.75-.43-1.54-1.31-1.89-2.1l-1.19-2.67s-.06-.02-.09-.03h-1.95s-.04,.05-.06,.08l-1.16,2.62c-.35,.79-1.15,1.67-1.89,2.1l-.93,.54c-.75,.43-1.91,.68-2.77,.59l-2.91-.31s-.04,.04-.07,.06l-.97,1.69s.02,.06,.03,.09l1.69,2.32c.51,.7,.88,1.83,.88,2.69v1.07c0,.86-.37,2-.88,2.69l-1.72,2.36s.01,.06,.02,.09l.98,1.68s.06,.01,.09,.02l2.85-.31c.86-.09,2.02,.16,2.77,.59l.93,.54c.75,.43,1.54,1.31,1.89,2.1l1.19,2.67s0,0,0,0Z"/></svg>