<?xml version="1.0" encoding="UTF-8"?><svg id="a" xmlns="http://www.w3.org/2000/svg" viewBox="0 0 32 32"><path d="M16,22c-3.3086,0-6-2.6914-6-6s2.6914-6,6-6,6,2.6914,6,6-2.6914,6-6,6ZM16,13c-1.6543,0-3,1.3457-3,3s1.3457,3,3,3,3-1.3457,3-3-1.3457-3-3-3Z" fill="#000" stroke-width="0"/><path d="M17,32h-2c-1.1436,0-2.3115-.7583-2.7764-1.8037l-1.1885-2.6738c-.0947-.2134-.4482-.606-.6504-.7231l-.9297-.5366c-.2021-.1167-.7197-.2275-.9512-.2017l-2.9082.3076c-1.1357.1172-2.3789-.5117-2.9521-1.5015l-1-1.7334c-.5723-.9927-.498-2.3833.1758-3.3076l1.7188-2.3638c.1387-.1904.3018-.6919.3018-.9263v-1.0723c0-.2344-.1631-.7358-.3008-.9253l-1.7207-2.3657c-.6729-.9233-.7471-2.314-.1758-3.3057l1.001-1.7334c.5732-.9907,1.8174-1.623,2.9512-1.5024l2.9092.3076c.2324.0229.749-.0845.9531-.2021l.9258-.5356c.2041-.1177.5576-.5103.6533-.7246l1.1865-2.6719c.4658-1.0464,1.6338-1.8047,2.7773-1.8047h2c1.1436,0,2.3115.7583,2.7764,1.8037l1.1885,2.6738c.0947.2134.4482.606.6504.7231l.9297.5366c.2031.1172.7168.2266.9512.2017l2.9082-.3076c1.1396-.1221,2.3789.5117,2.9521,1.5015l1,1.7334c.5723.9927.498,2.3833-.1758,3.3076l-1.7188,2.3638c-.1387.1904-.3018.6919-.3018.9263v1.0723c0,.2344.1631.7358.3008.9253l1.7207,2.3657c.6729.9233.7471,2.314.1758,3.3057l-1.001,1.7334c-.5723.9912-1.8115,1.6211-2.9512,1.5024l-2.9092-.3076c-.2305-.0273-.749.085-.9531.2021l-.9258.5356c-.2041.1177-.5576.5103-.6533.7246l-1.1865,2.6719c-.4658,1.0464-1.6338,1.8047-2.7773,1.8047ZM14.9688,28.9712c.0146,0,.0596.0269.085.0337l1.9463-.0049c-.0215-.0039.041-.0439.0625-.0708l1.1602-2.6245c.3516-.7891,1.1475-1.6733,1.8945-2.104l.9258-.5356c.749-.4316,1.9131-.6772,2.7695-.5874l2.9082.3076c-.0205-.0063.0449-.0396.0693-.064l.9688-1.6875c-.0234.0225-.0186-.0576-.0303-.0879l-1.6924-2.3188c-.5068-.6958-.876-1.8281-.876-2.6909v-1.0723c0-.8628.3691-1.9951.877-2.6919l1.7188-2.3638c-.0234.0137-.0127-.0591-.0205-.0918l-.9766-1.6826c.0049.02-.0576-.0137-.0928-.0181l-2.8535.3066c-.8584.0918-2.0215-.1558-2.7676-.5869-.001,0-.001-.0005-.002-.0005l-.9277-.5361c-.7451-.4302-1.541-1.3145-1.8916-2.1025l-1.1885-2.6738c.0039.019-.0566-.019-.0889-.0273l-1.9463.0049c.0215.0039-.041.0439-.0625.0708l-1.1602,2.6245c-.3516.7891-1.1475,1.6733-1.8945,2.104l-.9258.5356c-.748.4316-1.9102.6802-2.7695.5874l-2.9082-.3076c.0205.0063-.0449.0396-.0693.064l-.9688,1.6875c.0273-.0278.0186.0571.0303.0879l1.6924,2.3188c.5068.6958.876,1.8281.876,2.6909v1.0723c0,.8628-.3691,1.9951-.877,2.6919l-1.7188,2.3638c.0215-.0195.0117.0586.0205.0918l.9766,1.6826c-.0049-.0205.0576.0127.0928.0181l2.8535-.3066c.8574-.0913,2.0215.1558,2.7676.5869l.9297.5366c.7451.4302,1.541,1.3145,1.8916,2.1025l1.1885,2.6738c-.001-.0044,0-.0063.0039-.0063Z" fill="#000" stroke-width="0"/></svg>