<?xml version="1.0" encoding="UTF-8"?><svg id="a" xmlns="http://www.w3.org/2000/svg" viewBox="0 0 32 32"><path d="M16,32C7.1777,32,0,24.8223,0,16S7.1777,0,16,0s16,7.1777,16,16-7.1777,16-16,16ZM16,3c-7.1685,0-13,5.8315-13,13s5.8315,13,13,13,13-5.8315,13-13S23.168,3,16,3Z" fill="#000" stroke-width="0"/><path d="M16,32c-.418,0-.8174-.1748-1.1016-.4819-.2612-.2827-6.3984-7.0205-6.3984-15.5181S14.6372.7646,14.8984.4819c.5684-.6143,1.6348-.6143,2.2031,0,.2617.2827,6.3984,7.0205,6.3984,15.5181s-6.1367,15.2354-6.3984,15.5181c-.2842.3071-.6836.4819-1.1016.4819ZM16,3.8945c-1.6318,2.2144-4.5,6.854-4.5,12.1055s2.8677,9.8901,4.5,12.1055c1.6318-2.2144,4.5-6.854,4.5-12.1055s-2.8672-9.8901-4.5-12.1055Z" fill="#000" stroke-width="0"/><rect x="1.5" y="14.5" width="29" height="3" fill="#000" stroke-width="0"/></svg>