<?xml version="1.0" encoding="UTF-8"?><svg id="a" xmlns="http://www.w3.org/2000/svg" viewBox="0 0 32 32"><path d="M16,32C7.18,32,0,24.82,0,16S7.18,0,16,0s16,7.18,16,16-7.18,16-16,16Zm0-29c-7.17,0-13,5.83-13,13s5.83,13,13,13,13-5.83,13-13S23.17,3,16,3Z"/><path d="M16,32c-.42,0-.82-.17-1.1-.48-.26-.28-6.4-7.02-6.4-15.52S14.64,.76,14.9,.48c.57-.61,1.63-.61,2.2,0,.26,.28,6.4,7.02,6.4,15.52s-6.14,15.24-6.4,15.52c-.28,.31-.68,.48-1.1,.48Zm0-28.11c-1.63,2.21-4.5,6.85-4.5,12.11s2.87,9.89,4.5,12.11c1.63-2.21,4.5-6.85,4.5-12.11s-2.87-9.89-4.5-12.11Z"/><rect x="1.5" y="14.5" width="29" height="3"/></svg>