<?xml version="1.0" encoding="UTF-8"?><svg id="a" xmlns="http://www.w3.org/2000/svg" viewBox="0 0 32 32"><path d="M20.5,27.5c-.8281,0-1.5-.6714-1.5-1.5,0-4.4111-3.3643-8-7.5-8s-7.5,3.5889-7.5,8c0,.8286-.6719,1.5-1.5,1.5s-1.5-.6714-1.5-1.5c0-6.0654,4.71-11,10.5-11s10.5,4.9346,10.5,11c0,.8286-.6719,1.5-1.5,1.5Z"/><path d="M11.5,18c-3.8594,0-7-3.1401-7-7s3.1406-7,7-7,7,3.1401,7,7-3.1406,7-7,7Zm0-11c-2.2061,0-4,1.7944-4,4s1.7939,4,4,4,4-1.7944,4-4-1.7939-4-4-4Z"/><path d="M29.5,27.479c-.8281,0-1.5-.6714-1.5-1.5,0-3.0005-2.2773-5.4414-5.0762-5.4414-.8281,0-1.5-.6714-1.5-1.5s.6719-1.5,1.5-1.5c1.3887,0,2.5186-1.1299,2.5186-2.5186s-1.1299-2.519-2.5186-2.519c-.8281,0-1.5-.6714-1.5-1.5s.6719-1.5,1.5-1.5c3.043,0,5.5186,2.4756,5.5186,5.519,0,1.417-.5371,2.7114-1.418,3.6895,2.3779,1.4707,3.9756,4.1792,3.9756,7.2705,0,.8286-.6719,1.5-1.5,1.5Z"/></svg>