<?xml version="1.0" encoding="UTF-8"?><svg id="a" xmlns="http://www.w3.org/2000/svg" viewBox="0 0 32 32"><path d="M10.5,26.5h-6c-.4453,0-.8672-.1973-1.1523-.5391s-.4033-.793-.3232-1.2305l1.6768-9.168h-1.2012c-.4346,0-.8477-.1885-1.1328-.5166-.2842-.3281-.4131-.7637-.3525-1.1934l1-7.0625c.1045-.7402.7383-1.29,1.4854-1.29h24c.4346,0,.8477.1885,1.1328.5166.2842.3281.4131.7637.3525,1.1934l-1,7.0625c-.1045.7402-.7383,1.29-1.4854,1.29h-.0059l-13.7432-.0576-1.7754,9.7637c-.1299.7129-.751,1.2314-1.4756,1.2314ZM6.2988,23.5h2.9492l1.7764-9.7686c.1299-.7129.751-1.2314,1.4756-1.2314h.0059l13.6924.0566.5742-4.0566H5.8027l-.5752,4.0625h1.2725c.4453,0,.8672.1973,1.1523.5391s.4033.793.3232,1.2305l-1.6768,9.168Z"/><path d="M18.5,21.5h-7c-.8281,0-1.5-.6719-1.5-1.5s.6719-1.5,1.5-1.5h5.7295l.791-4.7471c.1357-.8174.9033-1.3652,1.7266-1.2324.8164.1357,1.3691.9092,1.2324,1.7266l-1,6c-.1201.7227-.7461,1.2529-1.4795,1.2529Z"/></svg>