<?xml version="1.0" encoding="UTF-8"?><svg id="a" xmlns="http://www.w3.org/2000/svg" viewBox="0 0 32 32"><path d="M16,30c-.3379,0-.6758-.1138-.9531-.3413l-.5117-.4209C3.7715,20.5913,0,17.0303,0,11.0757,0,6.0713,4.1162,2,9.1768,2c3.2842,0,5.4561,1.4966,6.8232,2.7861,1.3672-1.2896,3.5391-2.7861,6.8232-2.7861,5.0605,0,9.1768,4.0713,9.1768,9.0757,0,5.9546-3.7715,9.5156-14.5488,18.1729l-.498.4102c-.2773.2275-.6152.3413-.9531.3413ZM9.1768,5c-3.4639,0-6.1768,2.6689-6.1768,6.0757,0,4.1445,2.2002,6.793,13,15.4902,10.8008-8.6987,13-11.3472,13-15.4902,0-3.4067-2.7129-6.0757-6.1768-6.0757-2.8125,0-4.3623,1.46-5.709,2.9551-.5684.6318-1.6602.6318-2.2285,0-1.3467-1.4951-2.8965-2.9551-5.709-2.9551Z"/></svg>