<?xml version="1.0" encoding="UTF-8"?><svg id="a" xmlns="http://www.w3.org/2000/svg" viewBox="0 0 32 32"><path d="M28.5,32h-6.5c-1.9297,0-3.5-1.5703-3.5-3.5v-8c0-.271-.229-.5-.5-.5h-4c-.271,0-.5,.229-.5,.5v8c0,1.9297-1.5703,3.5-3.5,3.5H3.5c-1.9297,0-3.5-1.5703-3.5-3.5V15.5c0-1.5425,.8965-3.4478,2.085-4.4307L13.5024,1.6191c1.3765-1.1392,3.5708-1.1885,4.9976-.1133l11.3057,8.519c1.251,.9429,2.1943,2.835,2.1943,4.4014v14.0737c0,1.9297-1.5703,3.5-3.5,3.5Zm-14.5-15h4c1.9297,0,3.5,1.5703,3.5,3.5v8c0,.271,.229,.5,.5,.5h6.5c.271,0,.5-.229,.5-.5V14.4263c0-.6318-.4951-1.6255-1-2.0059L16.6943,3.9014h0c-.3228-.2422-.9673-.2275-1.2793,.0293L3.9976,13.3809c-.5039,.4165-.9976,1.4658-.9976,2.1191v13c0,.271,.229,.5,.5,.5h6.5c.271,0,.5-.229,.5-.5v-8c0-1.9297,1.5703-3.5,3.5-3.5Z"/></svg>