<?xml version="1.0" encoding="UTF-8"?><svg id="a" xmlns="http://www.w3.org/2000/svg" viewBox="0 0 32 32"><path d="M1.501,26c-.4229,0-.8428-.1777-1.1396-.5239-.5391-.6289-.4668-1.5757.1621-2.1147l7-6c.46-.3931,1.1084-.4717,1.6475-.2031l4.8633,2.4321,7.2529-9.9727c.2754-.3784.7109-.6064,1.1787-.6172.4336-.0317.9131.1963,1.2051.5625l8,10c.5176.647.4131,1.5908-.2334,2.1084-.6494.5181-1.5908.4126-2.1084-.2344l-6.7725-8.4648-6.8438,9.4102c-.4307.5928-1.2285.7871-1.8838.4595l-5.1094-2.5547-6.2432,5.3516c-.2832.2427-.6309.3613-.9756.3613Z" fill="#231f20"/><circle cx="8" cy="12" r="2"/><path d="M28.5,28H3.5C1.5703,28,0,26.4297,0,24.5V7.5C0,5.5703,1.5703,4,3.5,4h25c1.9297,0,3.5,1.5703,3.5,3.5v17c0,1.9297-1.5703,3.5-3.5,3.5ZM3.5,7c-.2754,0-.5.2241-.5.5v17c0,.2759.2246.5.5.5h25c.2754,0,.5-.2241.5-.5V7.5c0-.2759-.2246-.5-.5-.5H3.5Z"/></svg>