<?xml version="1.0" encoding="UTF-8"?><svg id="a" xmlns="http://www.w3.org/2000/svg" viewBox="0 0 32 32"><path d="M28.5,30H3.5c-1.9297,0-3.5-1.5703-3.5-3.5v-8.5c0-.2119,.0449-.4209,.1313-.6133L6.1016,4.0688c.563-1.2568,1.8164-2.0688,3.1938-2.0688h13.4092c1.3774,0,2.6309,.812,3.1938,2.0688l5.9702,13.3179c.0864,.1924,.1313,.4014,.1313,.6133v8.5c0,1.9297-1.5703,3.5-3.5,3.5ZM3,18.3213v8.1787c0,.2754,.2241,.5,.5,.5H28.5c.2759,0,.5-.2246,.5-.5v-8.1787l-5.8389-13.0254c-.0806-.1797-.2598-.2959-.4565-.2959H9.2954c-.1968,0-.376,.1162-.4565,.2954v.0005L3,18.3213ZM7.4702,4.6821h0Z"/><path d="M19,23h-6c-.3633,0-.7144-.1318-.9878-.3711l-3.5757-3.1289H1.5c-.8286,0-1.5-.6719-1.5-1.5s.6714-1.5,1.5-1.5h7.5c.3633,0,.7144,.1318,.9878,.3711l3.5757,3.1289h4.873l3.5757-3.1289c.2734-.2393,.6245-.3711,.9878-.3711h7.5c.8286,0,1.5,.6719,1.5,1.5s-.6714,1.5-1.5,1.5h-6.9365l-3.5757,3.1289c-.2734,.2393-.6245,.3711-.9878,.3711Z"/></svg>