<?xml version="1.0" encoding="UTF-8"?><svg id="a" xmlns="http://www.w3.org/2000/svg" viewBox="0 0 32 32"><path d="M28.5,30H3.5c-1.93,0-3.5-1.57-3.5-3.5v-8.5c0-.21,.04-.42,.13-.61L6.1,4.07c.56-1.26,1.82-2.07,3.19-2.07h13.41c1.38,0,2.63,.81,3.19,2.07l5.97,13.32c.09,.19,.13,.4,.13,.61v8.5c0,1.93-1.57,3.5-3.5,3.5ZM3,18.32v8.18c0,.28,.22,.5,.5,.5H28.5c.28,0,.5-.22,.5-.5v-8.18l-5.84-13.03c-.08-.18-.26-.3-.46-.3H9.3c-.2,0-.38,.12-.46,.3h0L3,18.32ZM7.47,4.68h0Z"/><path d="M19,23h-6c-.36,0-.71-.13-.99-.37l-3.58-3.13H1.5c-.83,0-1.5-.67-1.5-1.5s.67-1.5,1.5-1.5h7.5c.36,0,.71,.13,.99,.37l3.58,3.13h4.87l3.58-3.13c.27-.24,.62-.37,.99-.37h7.5c.83,0,1.5,.67,1.5,1.5s-.67,1.5-1.5,1.5h-6.94l-3.58,3.13c-.27,.24-.62,.37-.99,.37Z"/></svg>