<?xml version="1.0" encoding="UTF-8"?><svg id="a" xmlns="http://www.w3.org/2000/svg" viewBox="0 0 32 32"><path d="M16,32C7.18,32,0,24.82,0,16S7.18,0,16,0s16,7.18,16,16-7.18,16-16,16Zm0-29c-7.17,0-13,5.83-13,13s5.83,13,13,13,13-5.83,13-13S23.17,3,16,3Z"/><circle cx="16" cy="10" r="2"/><path d="M18.75,25h-4.5c-.83,0-1.5-.67-1.5-1.5s.67-1.5,1.5-1.5h4.5c.83,0,1.5,.67,1.5,1.5s-.67,1.5-1.5,1.5Z"/><path d="M17,25c-.83,0-1.5-.67-1.5-1.5v-6.21h-1.25c-.83,0-1.5-.67-1.5-1.5s.67-1.5,1.5-1.5h2.75c.83,0,1.5,.67,1.5,1.5v7.71c0,.83-.67,1.5-1.5,1.5Z"/></svg>