<?xml version="1.0" encoding="UTF-8"?><svg id="a" xmlns="http://www.w3.org/2000/svg" viewBox="0 0 32 32"><path d="M18.5,32h-5c-.83,0-1.5-.67-1.5-1.5s.67-1.5,1.5-1.5h5c.83,0,1.5,.67,1.5,1.5s-.67,1.5-1.5,1.5Z"/><path d="M20.5,27H11.5c-.83,0-1.5-.67-1.5-1.5s.67-1.5,1.5-1.5h9c.83,0,1.5,.67,1.5,1.5s-.67,1.5-1.5,1.5Z"/><path d="M20.5,22c-.83,0-1.5-.67-1.5-1.5,0-1.71,1.16-2.95,2.29-4.15,1.33-1.42,2.71-2.88,2.71-5.35,0-4.41-3.59-8-8-8s-8,3.59-8,8c0,2.46,1.38,3.93,2.71,5.35,1.13,1.2,2.29,2.44,2.29,4.15,0,.83-.67,1.5-1.5,1.5s-1.5-.67-1.5-1.5c0-.53-.72-1.29-1.48-2.1-1.49-1.58-3.52-3.75-3.52-7.4C5,4.93,9.93,0,16,0s11,4.93,11,11c0,3.65-2.04,5.82-3.52,7.4-.76,.81-1.48,1.57-1.48,2.1,0,.83-.67,1.5-1.5,1.5Z"/></svg>