<?xml version="1.0" encoding="UTF-8"?><svg id="a" xmlns="http://www.w3.org/2000/svg" viewBox="0 0 32 32"><path d="M18.5,32h-5c-.8281,0-1.5-.6714-1.5-1.5s.6719-1.5,1.5-1.5h5c.8281,0,1.5.6714,1.5,1.5s-.6719,1.5-1.5,1.5Z" fill="#000" stroke-width="0"/><path d="M20.5,27h-9c-.8281,0-1.5-.6714-1.5-1.5s.6719-1.5,1.5-1.5h9c.8281,0,1.5.6714,1.5,1.5s-.6719,1.5-1.5,1.5Z" fill="#000" stroke-width="0"/><path d="M20.5,22c-.8281,0-1.5-.6714-1.5-1.5,0-1.7134,1.1641-2.9526,2.29-4.1509,1.332-1.418,2.71-2.8843,2.71-5.3491,0-4.4111-3.5889-8-8-8s-8,3.5889-8,8c0,2.4648,1.3779,3.9312,2.71,5.3491,1.126,1.1982,2.29,2.4375,2.29,4.1509,0,.8286-.6719,1.5-1.5,1.5s-1.5-.6714-1.5-1.5c0-.5254-.7168-1.2886-1.4766-2.0967-1.4873-1.5825-3.5234-3.7505-3.5234-7.4033C5,4.9346,9.9346,0,16,0s11,4.9346,11,11c0,3.6528-2.0361,5.8208-3.5234,7.4033-.7598.8081-1.4766,1.5713-1.4766,2.0967,0,.8286-.6719,1.5-1.5,1.5Z" fill="#000" stroke-width="0"/></svg>