<?xml version="1.0" encoding="UTF-8"?><svg id="a" xmlns="http://www.w3.org/2000/svg" viewBox="0 0 32 32"><path d="M9.5,29.5c-1.7363,0-3.3682-.6768-4.5957-1.9043s-1.9043-2.8594-1.9043-4.5957,.6768-3.3682,1.9043-4.5957l4.9492-4.9502c2.5342-2.5332,6.6562-2.5342,9.1924,0,.5859,.585,.5859,1.5352,0,2.1211s-1.5352,.5859-2.1211,0c-1.3643-1.3623-3.584-1.3633-4.9502,0l-4.9492,4.9502c-.6611,.6611-1.0254,1.54-1.0254,2.4746s.3643,1.8135,1.0254,2.4746c1.3223,1.3223,3.627,1.3223,4.9492,0l2.8291-2.8281c.5859-.5859,1.5352-.5859,2.1211,0s.5859,1.5361,0,2.1211l-2.8291,2.8281c-1.2275,1.2275-2.8594,1.9043-4.5957,1.9043Z"/><path d="M17.5498,20.4463c-1.6641,0-3.3281-.6338-4.5957-1.9004-.5859-.585-.5859-1.5352,0-2.1211s1.5352-.5859,2.1211,0c1.3652,1.3633,3.585,1.3652,4.9502,0l4.9492-4.9502c.6611-.6611,1.0254-1.54,1.0254-2.4746s-.3643-1.8135-1.0254-2.4746c-1.3223-1.3232-3.627-1.3228-4.9492-.0005l-2.8291,2.8286c-.5859,.5859-1.5352,.5859-2.1211,0s-.5859-1.5352,0-2.1211l2.8291-2.8286c1.2275-1.2275,2.8594-1.9038,4.5957-1.9038s3.3682,.6763,4.5957,1.9038,1.9043,2.8599,1.9043,4.5962-.6768,3.3682-1.9043,4.5957l-4.9492,4.9502c-1.2676,1.2666-2.9316,1.9004-4.5967,1.9004Z"/></svg>