<?xml version="1.0" encoding="UTF-8"?><svg id="a" xmlns="http://www.w3.org/2000/svg" viewBox="0 0 32 32"><path d="M9.5,29.5c-1.74,0-3.37-.68-4.6-1.9s-1.9-2.86-1.9-4.6,.68-3.37,1.9-4.6l4.95-4.95c2.53-2.53,6.66-2.53,9.19,0,.59,.58,.59,1.54,0,2.12s-1.54,.59-2.12,0c-1.36-1.36-3.58-1.36-4.95,0l-4.95,4.95c-.66,.66-1.03,1.54-1.03,2.47s.36,1.81,1.03,2.47c1.32,1.32,3.63,1.32,4.95,0l2.83-2.83c.59-.59,1.54-.59,2.12,0s.59,1.54,0,2.12l-2.83,2.83c-1.23,1.23-2.86,1.9-4.6,1.9Z"/><path d="M17.55,20.45c-1.66,0-3.33-.63-4.6-1.9-.59-.58-.59-1.54,0-2.12s1.54-.59,2.12,0c1.37,1.36,3.58,1.37,4.95,0l4.95-4.95c.66-.66,1.03-1.54,1.03-2.47s-.36-1.81-1.03-2.47c-1.32-1.32-3.63-1.32-4.95,0l-2.83,2.83c-.59,.59-1.54,.59-2.12,0s-.59-1.54,0-2.12l2.83-2.83c1.23-1.23,2.86-1.9,4.6-1.9s3.37,.68,4.6,1.9,1.9,2.86,1.9,4.6-.68,3.37-1.9,4.6l-4.95,4.95c-1.27,1.27-2.93,1.9-4.6,1.9Z"/></svg>