<?xml version="1.0" encoding="UTF-8"?><svg id="a" xmlns="http://www.w3.org/2000/svg" viewBox="0 0 32 32"><path d="M24.5,30H7.5c-1.93,0-3.5-1.57-3.5-3.5V15.5c0-1.93,1.57-3.5,3.5-3.5H24.5c1.93,0,3.5,1.57,3.5,3.5v11c0,1.93-1.57,3.5-3.5,3.5ZM7.5,15c-.28,0-.5,.22-.5,.5v11c0,.28,.22,.5,.5,.5H24.5c.28,0,.5-.22,.5-.5V15.5c0-.28-.22-.5-.5-.5H7.5Z"/><path d="M22.5,15c-.83,0-1.5-.67-1.5-1.5v-3.73c0-.05-.02-.11-.02-.16-.2-2.59-2.38-4.61-4.98-4.61s-4.78,2.03-4.98,4.61c0,.05-.01,.11-.02,.16v3.72c0,.83-.67,1.5-1.5,1.5s-1.5-.67-1.5-1.5v-4c0-.14,.02-.28,.06-.42,.46-4,3.89-7.08,7.94-7.08s7.49,3.09,7.94,7.09c.04,.13,.06,.26,.06,.41v4c0,.83-.67,1.5-1.5,1.5Z"/></svg>