<?xml version="1.0" encoding="UTF-8"?><svg id="a" xmlns="http://www.w3.org/2000/svg" viewBox="0 0 32 32"><path d="M24.5,30H7.5c-1.9297,0-3.5-1.5703-3.5-3.5v-11c0-1.9297,1.5703-3.5,3.5-3.5h17c1.9297,0,3.5,1.5703,3.5,3.5v11c0,1.9297-1.5703,3.5-3.5,3.5ZM7.5,15c-.2754,0-.5.2246-.5.5v11c0,.2754.2246.5.5.5h17c.2754,0,.5-.2246.5-.5v-11c0-.2754-.2246-.5-.5-.5H7.5Z" fill="#000" stroke-width="0"/><path d="M22.5,15c-.8281,0-1.5-.6719-1.5-1.5v-3.7266c-.0098-.0518-.0166-.1055-.0215-.1592-.1973-2.5879-2.3838-4.6143-4.9785-4.6143s-4.7812,2.0264-4.9785,4.6143c-.0049.0547-.0117.1084-.0215.1611v3.7246c0,.8281-.6719,1.5-1.5,1.5s-1.5-.6719-1.5-1.5v-4c0-.1445.0205-.2842.0586-.417.459-3.9961,3.8896-7.083,7.9414-7.083,4.0557,0,7.4893,3.0928,7.9424,7.0947.0371.1289.0576.2646.0576.4053v4c0,.8281-.6719,1.5-1.5,1.5Z" fill="#000" stroke-width="0"/></svg>