<?xml version="1.0" encoding="UTF-8"?><svg id="a" xmlns="http://www.w3.org/2000/svg" viewBox="0 0 32 32"><path d="M16,27h-7.5c-.9365,0-1.8154-.3643-2.4766-1.0264-.6592-.6582-1.0234-1.5371-1.0234-2.4736v-15c0-.9365.3643-1.8154,1.0264-2.4766.6582-.6592,1.5371-1.0234,2.4736-1.0234h7.5c.8281,0,1.5.6719,1.5,1.5s-.6719,1.5-1.5,1.5h-7.5c-.1807,0-.2979.0908-.3516.1455-.0576.0566-.1484.1738-.1484.3545v15c0,.1807.0908.2979.1455.3516.0566.0576.1738.1484.3545.1484h7.5c.8281,0,1.5.6719,1.5,1.5s-.6719,1.5-1.5,1.5Z" fill="#000" stroke-width="0"/><path d="M21.8431,11.3431c0-.55.3182-.6818.7071-.2929l4.2426,4.2426c.3889.3889.3889,1.0253,0,1.4142l-4.2426,4.2426c-.3889.3889-.7071.2571-.7071-.2929v-9.3137Z" fill="#000" stroke-width="0"/><path d="M23.75,17.5h-9.5c-.8281,0-1.5-.6719-1.5-1.5s.6719-1.5,1.5-1.5h9.5c.8281,0,1.5.6719,1.5,1.5s-.6719,1.5-1.5,1.5Z" fill="#000" stroke-width="0"/></svg>