<?xml version="1.0" encoding="UTF-8"?><svg id="a" xmlns="http://www.w3.org/2000/svg" viewBox="0 0 32 32"><circle cx="16" cy="14.5" r="4"/><path d="M16,31c-.3604,0-.7197-.1289-1.0059-.3867l-7.75-7.0029c-.0557-.0508-.1074-.1045-.1543-.1621-2.6016-2.4541-4.0898-5.8857-4.0898-9.4482C3,6.8315,8.832,1,16,1s13,5.8315,13,13c0,3.5645-1.4893,6.9971-4.0938,9.4512-.0459,.0566-.0957,.1094-.1504,.1592l-7.75,7.0029c-.2861,.2578-.6455,.3867-1.0059,.3867Zm-6.5928-9.4795l6.5928,5.958,6.5957-5.96c.041-.0488,.0859-.0957,.1338-.1396,2.0781-1.8965,3.2705-4.5859,3.2705-7.3789,0-5.5137-4.4863-10-10-10S6,8.4863,6,14c0,2.793,1.1924,5.4824,3.2705,7.3789,.0488,.0449,.0947,.0918,.1367,.1416Z"/></svg>