<?xml version="1.0" encoding="UTF-8"?><svg id="a" xmlns="http://www.w3.org/2000/svg" viewBox="0 0 32 32"><circle cx="16" cy="14.5" r="4"/><path d="M16,31c-.36,0-.72-.13-1.01-.39l-7.75-7c-.06-.05-.11-.1-.15-.16-2.6-2.45-4.09-5.89-4.09-9.45C3,6.83,8.83,1,16,1s13,5.83,13,13c0,3.56-1.49,7-4.09,9.45-.05,.06-.1,.11-.15,.16l-7.75,7c-.29,.26-.65,.39-1.01,.39Zm-6.59-9.48l6.59,5.96,6.6-5.96s.09-.1,.13-.14c2.08-1.9,3.27-4.59,3.27-7.38,0-5.51-4.49-10-10-10S6,8.49,6,14c0,2.79,1.19,5.48,3.27,7.38,.05,.04,.09,.09,.14,.14Z"/></svg>