<?xml version="1.0" encoding="UTF-8"?><svg id="a" xmlns="http://www.w3.org/2000/svg" viewBox="0 0 32 32"><circle cx="16" cy="12.5" r="4" fill="#000" stroke-width="0"/><path d="M16,24c-6.3408,0-11.5-5.1592-11.5-11.5S9.6592,1,16,1s11.5,5.1587,11.5,11.5-5.1592,11.5-11.5,11.5ZM16,4c-4.6865,0-8.5,3.8135-8.5,8.5s3.8135,8.5,8.5,8.5,8.5-3.8135,8.5-8.5-3.8135-8.5-8.5-8.5Z" fill="#000" stroke-width="0"/><path d="M16,31c-.8281,0-1.5-.6719-1.5-1.5v-7c0-.8281.6719-1.5,1.5-1.5s1.5.6719,1.5,1.5v7c0,.8281-.6719,1.5-1.5,1.5Z" fill="#000" stroke-width="0"/></svg>