<?xml version="1.0" encoding="UTF-8"?><svg id="a" xmlns="http://www.w3.org/2000/svg" viewBox="0 0 32 32"><path d="M30.5,21c-.2002,0-.4014-.04-.5908-.1211-.0654-.0273-6.8379-2.8604-16.334-2.3809l-5.5752.002C3.5889,18.5,0,14.9111,0,10.5S3.5889,2.5,8,2.5h5.5c.0254,0,.0498.0005.0752.002C23.0547,2.9707,29.8428.1489,29.9111.1206c.4619-.1987.9941-.1499,1.415.1289.4199.2773.6738.7471.6738,1.2505v18c0,.5039-.2529.9746-.6738,1.252-.249.1641-.5371.248-.8262.248ZM15.8213,15.4414c5.9463,0,10.6357,1.1426,13.1787,1.9365V3.6216c-2.8643.8926-8.4639,2.2236-15.5371,1.8784h-5.4629c-2.7568,0-5,2.2432-5,5s2.2432,5,5,5h5.5c.793-.04,1.5674-.0586,2.3213-.0586Z" fill="#000" stroke-width="0"/><path d="M11.5,32c-1.4395,0-2.7158-.5762-3.6914-1.665-3.2852-3.6709-2.4102-12.5049-2.2998-13.501.0928-.8223.8232-1.4209,1.6562-1.3242.8232.0908,1.417.832,1.3262,1.6553-.3584,3.248-.2529,9.1533,1.5537,11.1699.4121.46.8613.665,1.4551.665.6865,0,1.5781-.0938,1.9316-.54.6865-.8662.0918-3.3945-.4326-5.626-.46-1.9551-.9355-3.9775-.9023-5.8604.0605-3.4434.001-12.8691,0-12.9639-.0049-.8286.6621-1.5044,1.4902-1.5098h.0098c.8242,0,1.4941.665,1.5,1.4902.001.0952.0605,9.5576,0,13.0361-.0264,1.5078.4053,3.3447.8232,5.1211.7461,3.1738,1.4502,6.1719-.1367,8.1758-.8818,1.1123-2.3223,1.6768-4.2832,1.6768Z" fill="#000" stroke-width="0"/></svg>