<?xml version="1.0" encoding="UTF-8"?><svg id="a" xmlns="http://www.w3.org/2000/svg" viewBox="0 0 32 32"><path d="M16,24c-4.4111,0-8-3.5889-8-8s3.5889-8,8-8,8,3.5889,8,8-3.5889,8-8,8ZM16,11c-2.7568,0-5,2.2432-5,5s2.2432,5,5,5,5-2.2432,5-5-2.2432-5-5-5Z" fill="#000" stroke-width="0"/><path d="M16,32C7.1777,32,0,24.8223,0,16S7.1777,0,16,0s16,7.1777,16,16v2.5c0,3.0322-2.4678,5.5-5.5,5.5s-5.5-2.4678-5.5-5.5v-2.0049c.0029-.8262.6729-1.498,1.5-1.498.8281,0,1.5.6689,1.5,1.498v2.0049c0,1.3789,1.1211,2.5,2.5,2.5s2.5-1.1211,2.5-2.5v-2.5c0-7.168-5.832-13-13-13S3,8.832,3,16s5.832,13,13,13c2.2783,0,4.5254-.6025,6.499-1.7412.7168-.415,1.6348-.1699,2.0488.5488.4141.7178.1689,1.6348-.5488,2.0488-2.4287,1.4023-5.1943,2.1436-7.999,2.1436Z" fill="#000" stroke-width="0"/></svg>