<?xml version="1.0" encoding="UTF-8"?><svg id="a" xmlns="http://www.w3.org/2000/svg" viewBox="0 0 32 32"><path d="M16,24c-4.41,0-8-3.59-8-8s3.59-8,8-8,8,3.59,8,8-3.59,8-8,8Zm0-13c-2.76,0-5,2.24-5,5s2.24,5,5,5,5-2.24,5-5-2.24-5-5-5Z"/><path d="M16,32C7.18,32,0,24.82,0,16S7.18,0,16,0s16,7.18,16,16v2.5c0,3.03-2.47,5.5-5.5,5.5s-5.5-2.47-5.5-5.5v-2c0-.83,.67-1.5,1.5-1.5s1.5,.67,1.5,1.5v2c0,1.38,1.12,2.5,2.5,2.5s2.5-1.12,2.5-2.5v-2.5c0-7.17-5.83-13-13-13S3,8.83,3,16s5.83,13,13,13c2.28,0,4.53-.6,6.5-1.74,.72-.42,1.63-.17,2.05,.55,.41,.72,.17,1.63-.55,2.05-2.43,1.4-5.19,2.14-8,2.14Z"/></svg>