<?xml version="1.0" encoding="UTF-8"?><svg id="a" xmlns="http://www.w3.org/2000/svg" viewBox="0 0 32 32"><path d="M28.5,28H3.5c-1.9297,0-3.5-1.5703-3.5-3.5V7.5c0-1.9297,1.5703-3.5,3.5-3.5h25c1.9297,0,3.5,1.5703,3.5,3.5v17c0,1.9297-1.5703,3.5-3.5,3.5ZM3.5,7c-.2759,0-.5.2246-.5.5v17c0,.2754.2241.5.5.5h25c.2759,0,.5-.2246.5-.5V7.5c0-.2754-.2241-.5-.5-.5H3.5Z" fill="#000" stroke-width="0"/><path d="M16,18c-.2363,0-.4731-.0557-.689-.168L.811,10.332c-.7358-.3799-1.0239-1.2852-.6436-2.0215s1.2861-1.0254,2.0215-.6426l13.811,7.1436,13.811-7.1436c.7363-.3828,1.6401-.0938,2.0215.6426.3804.7363.0923,1.6416-.6436,2.0215l-14.5,7.5c-.2158.1123-.4526.168-.689.168Z" fill="#000" stroke-width="0"/></svg>