<?xml version="1.0" encoding="UTF-8"?><svg id="a" xmlns="http://www.w3.org/2000/svg" viewBox="0 0 32 32"><path d="M28.5,28H3.5c-1.93,0-3.5-1.57-3.5-3.5V7.5c0-1.93,1.57-3.5,3.5-3.5H28.5c1.93,0,3.5,1.57,3.5,3.5V24.5c0,1.93-1.57,3.5-3.5,3.5ZM3.5,7c-.28,0-.5,.22-.5,.5V24.5c0,.28,.22,.5,.5,.5H28.5c.28,0,.5-.22,.5-.5V7.5c0-.28-.22-.5-.5-.5H3.5Z"/><path d="M16,18c-.24,0-.47-.06-.69-.17L.81,10.33c-.74-.38-1.02-1.29-.64-2.02s1.29-1.03,2.02-.64l13.81,7.14,13.81-7.14c.74-.38,1.64-.09,2.02,.64,.38,.74,.09,1.64-.64,2.02l-14.5,7.5c-.22,.11-.45,.17-.69,.17Z"/></svg>