<?xml version="1.0" encoding="UTF-8"?><svg id="a" xmlns="http://www.w3.org/2000/svg" viewBox="0 0 32 32"><path d="M16.4229,28.5c-7.126,0-12.9229-5.7969-12.9229-12.9229,0-5.2324,3.0107-9.9238,7.6709-11.9521.5625-.2451,1.2236-.1221,1.6592.3145.4365.4365.5605,1.0947.3145,1.6602-.4717,1.083-.7217,2.4854-.7217,4.0547,0,5.4717,4.4512,9.9229,9.9229,9.9229,1.5693,0,2.9717-.25,4.0547-.7217.5654-.2461,1.2236-.1211,1.6602.3145.4355.4355.5605,1.0938.3145,1.6592-2.0283,4.6602-6.7197,7.6709-11.9521,7.6709ZM9.4717,8.3398c-1.8652,1.8447-2.9717,4.4385-2.9717,7.2373,0,5.4717,4.4512,9.9229,9.9229,9.9229,2.7988,0,5.3926-1.1064,7.2373-2.9717-.4258.0322-.8643.0488-1.3145.0488-7.126,0-12.9229-5.7969-12.9229-12.9229,0-.4502.0166-.8887.0488-1.3145Z" fill="#000" stroke-width="0"/></svg>