<?xml version="1.0" encoding="UTF-8"?><svg id="a" xmlns="http://www.w3.org/2000/svg" viewBox="0 0 32 32"><path d="M10.5,26.5c-5.79,0-10.5-4.71-10.5-10.5S4.71,5.5,10.5,5.5s10.5,4.71,10.5,10.5-4.71,10.5-10.5,10.5ZM10.5,8.5c-4.1357,0-7.5,3.3643-7.5,7.5s3.3643,7.5,7.5,7.5,7.5-3.3643,7.5-7.5-3.3643-7.5-7.5-7.5Z" fill="#000" stroke-width="0"/><path d="M21.5,26.5c-5.79,0-10.5-4.71-10.5-10.5s4.71-10.5,10.5-10.5,10.5,4.71,10.5,10.5-4.71,10.5-10.5,10.5ZM21.5,8.5c-4.1357,0-7.5,3.3643-7.5,7.5s3.3643,7.5,7.5,7.5,7.5-3.3643,7.5-7.5-3.3643-7.5-7.5-7.5Z" fill="#000" stroke-width="0"/></svg>