<?xml version="1.0" encoding="UTF-8"?><svg id="a" xmlns="http://www.w3.org/2000/svg" viewBox="0 0 32 32"><path d="M20.5,32h-4c-1.93,0-3.5-1.57-3.5-3.5,0-.27-.23-.5-.5-.5h-1c-.27,0-.5,.23-.5,.5,0,1.93-1.57,3.5-3.5,3.5H3.5c-1.93,0-3.5-1.57-3.5-3.5V3.5C0,1.57,1.57,0,3.5,0H20.5C22.43,0,24,1.57,24,3.5V28.5c0,1.93-1.57,3.5-3.5,3.5Zm-9-7h1c1.93,0,3.5,1.57,3.5,3.5,0,.27,.23,.5,.5,.5h4c.27,0,.5-.23,.5-.5V3.5c0-.27-.23-.5-.5-.5H3.5c-.27,0-.5,.23-.5,.5V28.5c0,.27,.23,.5,.5,.5H7.5c.27,0,.5-.23,.5-.5,0-1.93,1.57-3.5,3.5-3.5Z"/><path d="M8.5,21.5h-1c-.83,0-1.5-.67-1.5-1.5s.67-1.5,1.5-1.5h1c.83,0,1.5,.67,1.5,1.5s-.67,1.5-1.5,1.5Z"/><path d="M8.5,15.5h-1c-.83,0-1.5-.67-1.5-1.5s.67-1.5,1.5-1.5h1c.83,0,1.5,.67,1.5,1.5s-.67,1.5-1.5,1.5Z"/><path d="M8.5,9.5h-1c-.83,0-1.5-.67-1.5-1.5s.67-1.5,1.5-1.5h1c.83,0,1.5,.67,1.5,1.5s-.67,1.5-1.5,1.5Z"/><path d="M16.5,21.5h-1c-.83,0-1.5-.67-1.5-1.5s.67-1.5,1.5-1.5h1c.83,0,1.5,.67,1.5,1.5s-.67,1.5-1.5,1.5Z"/><path d="M16.5,15.5h-1c-.83,0-1.5-.67-1.5-1.5s.67-1.5,1.5-1.5h1c.83,0,1.5,.67,1.5,1.5s-.67,1.5-1.5,1.5Z"/><path d="M16.5,9.5h-1c-.83,0-1.5-.67-1.5-1.5s.67-1.5,1.5-1.5h1c.83,0,1.5,.67,1.5,1.5s-.67,1.5-1.5,1.5Z"/><path d="M30.5,32h-9.5c-.83,0-1.5-.67-1.5-1.5s.67-1.5,1.5-1.5h8v-11.38l-2.56-2.56c-.59-.59-.59-1.54,0-2.12,.59-.59,1.54-.59,2.12,0l3,3c.28,.28,.44,.66,.44,1.06v13.5c0,.83-.67,1.5-1.5,1.5Z"/></svg>