<?xml version="1.0" encoding="UTF-8"?><svg id="a" xmlns="http://www.w3.org/2000/svg" viewBox="0 0 32 32"><path d="M20.5,32h-4c-1.9297,0-3.5-1.5703-3.5-3.5,0-.271-.2285-.5-.5-.5h-1c-.2715,0-.5.229-.5.5,0,1.9297-1.5703,3.5-3.5,3.5H3.5c-1.9297,0-3.5-1.5703-3.5-3.5V3.5C0,1.5703,1.5703,0,3.5,0h17C22.4297,0,24,1.5703,24,3.5v25c0,1.9297-1.5703,3.5-3.5,3.5ZM11.5,25h1c1.9297,0,3.5,1.5703,3.5,3.5,0,.271.2285.5.5.5h4c.2715,0,.5-.229.5-.5V3.5c0-.271-.2285-.5-.5-.5H3.5c-.2715,0-.5.229-.5.5v25c0,.271.2285.5.5.5h4c.2715,0,.5-.229.5-.5,0-1.9297,1.5703-3.5,3.5-3.5Z" fill="#000" stroke-width="0"/><path d="M8.5,21.5h-1c-.8281,0-1.5-.6714-1.5-1.5s.6719-1.5,1.5-1.5h1c.8281,0,1.5.6714,1.5,1.5s-.6719,1.5-1.5,1.5Z" fill="#000" stroke-width="0"/><path d="M8.5,15.5h-1c-.8281,0-1.5-.6714-1.5-1.5s.6719-1.5,1.5-1.5h1c.8281,0,1.5.6714,1.5,1.5s-.6719,1.5-1.5,1.5Z" fill="#000" stroke-width="0"/><path d="M8.5,9.5h-1c-.8281,0-1.5-.6714-1.5-1.5s.6719-1.5,1.5-1.5h1c.8281,0,1.5.6714,1.5,1.5s-.6719,1.5-1.5,1.5Z" fill="#000" stroke-width="0"/><path d="M16.5,21.5h-1c-.8281,0-1.5-.6714-1.5-1.5s.6719-1.5,1.5-1.5h1c.8281,0,1.5.6714,1.5,1.5s-.6719,1.5-1.5,1.5Z" fill="#000" stroke-width="0"/><path d="M16.5,15.5h-1c-.8281,0-1.5-.6714-1.5-1.5s.6719-1.5,1.5-1.5h1c.8281,0,1.5.6714,1.5,1.5s-.6719,1.5-1.5,1.5Z" fill="#000" stroke-width="0"/><path d="M16.5,9.5h-1c-.8281,0-1.5-.6714-1.5-1.5s.6719-1.5,1.5-1.5h1c.8281,0,1.5.6714,1.5,1.5s-.6719,1.5-1.5,1.5Z" fill="#000" stroke-width="0"/><path d="M30.5,32h-9.5c-.8281,0-1.5-.6714-1.5-1.5s.6719-1.5,1.5-1.5h8v-11.3789l-2.5605-2.5605c-.5859-.5854-.5859-1.5356,0-2.1211.5859-.5859,1.5352-.5859,2.1211,0l3,3c.2812.2812.4395.6626.4395,1.0605v13.5c0,.8286-.6719,1.5-1.5,1.5Z" fill="#000" stroke-width="0"/></svg>