<?xml version="1.0" encoding="UTF-8"?><svg id="a" xmlns="http://www.w3.org/2000/svg" viewBox="0 0 32 32"><path d="M16,18c-4.4111,0-8-3.5889-8-8S11.5889,2,16,2s8,3.5889,8,8-3.5889,8-8,8ZM16,5c-2.7568,0-5,2.2432-5,5s2.2432,5,5,5,5-2.2432,5-5-2.2432-5-5-5Z" fill="#000" stroke-width="0"/><path d="M26.5,28.5c-.8281,0-1.5-.6714-1.5-1.5,0-4.9624-4.0371-9-9-9s-9,4.0376-9,9c0,.8286-.6719,1.5-1.5,1.5s-1.5-.6714-1.5-1.5c0-6.6167,5.3828-12,12-12s12,5.3833,12,12c0,.8286-.6719,1.5-1.5,1.5Z" fill="#000" stroke-width="0"/></svg>