<?xml version="1.0" encoding="UTF-8"?><svg id="a" xmlns="http://www.w3.org/2000/svg" viewBox="0 0 32 32"><path d="M22.6,28.5C12.07,28.5,3.5,19.93,3.5,9.4c0-3.91,3.84-6.98,7.87-5.54,.48,.17,.85,.58,.96,1.08l1.64,7.24c.11,.5-.04,1.03-.4,1.39-.86,.86-1.96,1.42-3.18,1.63-.81,.14-1.59-.41-1.73-1.23-.14-.82,.41-1.59,1.23-1.73,.34-.06,.66-.17,.95-.33l-1.23-5.41c-1.7-.15-3.11,1.22-3.11,2.89,0,8.88,7.22,16.1,16.1,16.1,1.6,0,2.9-1.3,2.9-2.9,0-.07,0-.14,0-.21l-5.41-1.22c-.16,.29-.27,.61-.33,.95-.14,.82-.91,1.37-1.73,1.23-.82-.14-1.37-.91-1.23-1.73,.21-1.22,.77-2.32,1.63-3.18,.36-.36,.89-.52,1.39-.4l7.24,1.64c.5,.11,.91,.48,1.08,.96,.24,.67,.36,1.32,.36,1.97,0,3.25-2.65,5.9-5.9,5.9Z"/></svg>