<?xml version="1.0" encoding="UTF-8"?><svg id="a" xmlns="http://www.w3.org/2000/svg" viewBox="0 0 32 32"><path d="M22.6001,28.5C12.0684,28.5,3.5,19.9316,3.5,9.4004c0-3.9062,3.8354-6.98,7.8706-5.5439.4839.1724.8462.5801.96,1.0815l1.6426,7.2417c.1138.5029-.0381,1.0283-.4023,1.3926-.8594.8594-1.9585,1.4238-3.1787,1.6318-.8096.1426-1.5908-.4092-1.7305-1.2266-.1392-.8164.4097-1.5918,1.2266-1.7305.3398-.0576.6597-.1709.9487-.332l-1.2261-5.4058c-1.6987-.1504-3.1108,1.2212-3.1108,2.8911,0,8.877,7.2227,16.0996,16.1001,16.0996,1.5991,0,2.8999-1.3008,2.8999-2.9004,0-.0693-.0029-.1396-.0093-.2109l-5.4053-1.2246c-.1621.2891-.2744.6084-.3325.9482-.1387.8174-.9136,1.3672-1.7305,1.2266-.8169-.1387-1.3657-.9141-1.2266-1.7305.2075-1.2197.7715-2.3184,1.6309-3.1787.3647-.3633.8916-.5176,1.3926-.4023l7.2427,1.6416c.5015.1133.9097.4766,1.082.9609.2393.6748.356,1.3184.356,1.9697,0,3.2539-2.6465,5.9004-5.8999,5.9004Z" fill="#000" stroke-width="0"/></svg>