<?xml version="1.0" encoding="UTF-8"?><svg id="a" xmlns="http://www.w3.org/2000/svg" viewBox="0 0 32 32"><path d="M20.71,20.71c-.39-.39-.26-.71,.29-.71h6c.55,0,1,.45,1,1v6c0,.55-.32,.68-.71,.29l-6.59-6.59Z"/><path d="M11.29,11.29c.39,.39,.26,.71-.29,.71H5c-.55,0-1-.45-1-1V5c0-.55,.32-.68,.71-.29l6.59,6.59Z"/><path d="M27.32,15.5c-.71,0-1.35-.51-1.48-1.24-.84-4.79-4.99-8.26-9.85-8.26-2.63,0-5.21,1.07-7.07,2.93-.59,.59-1.54,.58-2.12,0-.59-.59-.59-1.54,0-2.12,2.42-2.42,5.77-3.81,9.2-3.81,6.32,0,11.7,4.52,12.8,10.74,.14,.82-.4,1.59-1.22,1.74-.09,.02-.18,.02-.26,.02Z"/><path d="M16,29c-6.32,0-11.71-4.52-12.8-10.75-.14-.82,.4-1.59,1.22-1.74,.81-.14,1.59,.4,1.74,1.22,.84,4.79,4.98,8.26,9.85,8.26,2.63,0,5.21-1.07,7.07-2.93,.59-.58,1.54-.58,2.12,0,.58,.59,.58,1.54,0,2.12-2.42,2.42-5.77,3.8-9.19,3.8Z"/></svg>