<?xml version="1.0" encoding="UTF-8"?><svg id="a" xmlns="http://www.w3.org/2000/svg" viewBox="0 0 32 32"><path d="M20.7071,20.7071c-.3889-.3889-.2571-.7071,.2929-.7071h6c.55,0,1,.45,1,1v6c0,.55-.3182,.6818-.7071,.2929l-6.5858-6.5858Z"/><path d="M11.2929,11.2929c.3889,.3889,.2571,.7071-.2929,.7071H5c-.55,0-1-.45-1-1V5c0-.55,.3182-.6818,.7071-.2929l6.5858,6.5858Z"/><path d="M27.3223,15.498c-.7139,0-1.3467-.5117-1.4756-1.2393-.8447-4.7852-4.9863-8.2588-9.8467-8.2588-2.6338,0-5.2129,1.0684-7.0742,2.9326-.5859,.5859-1.5361,.585-2.1221,.001-.5859-.5859-.5859-1.5361-.001-2.1221,2.4209-2.4219,5.7725-3.8115,9.1973-3.8115,6.3184,0,11.7021,4.5156,12.8018,10.7373,.1436,.8154-.4004,1.5938-1.2168,1.7383-.0879,.0156-.1758,.0225-.2627,.0225Z"/><path d="M16,29c-6.3223,0-11.7061-4.5186-12.8027-10.7451-.1436-.8154,.4014-1.5938,1.2178-1.7373,.8105-.1436,1.5928,.4004,1.7373,1.2178,.8428,4.7891,4.9844,8.2646,9.8477,8.2646,2.6309,0,5.208-1.0674,7.0693-2.9277,.5859-.584,1.5361-.585,2.1221,.001,.585,.5859,.585,1.5361-.001,2.1221-2.4209,2.418-5.7705,3.8047-9.1904,3.8047Z"/></svg>