<?xml version="1.0" encoding="UTF-8"?><svg id="a" xmlns="http://www.w3.org/2000/svg" viewBox="0 0 32 32"><path d="M24.6777,24.3174c-.54,0-1.0625-.293-1.3301-.8047-.0723-.1367-4.7314-8.7734-12.6709-8.7734-.8281,0-1.5-.6719-1.5-1.5s.6719-1.5,1.5-1.5c9.7969,0,15.1084,9.96,15.3301,10.3838.3828.7344.0986,1.6406-.6357,2.0244-.2217.1152-.459.1699-.6934.1699Z"/><path d="M11.3232,18.6826c-.3838,0-.7676-.1465-1.0605-.4395l-4-4c-.5859-.5859-.5859-1.5352,0-2.1211l4-4c.5859-.5859,1.5352-.5859,2.1211,0s.5859,1.5352,0,2.1211l-2.9395,2.9395,2.9395,2.9395c.5859.5859.5859,1.5352,0,2.1211-.293.293-.6768.4395-1.0605.4395Z"/></svg>