<?xml version="1.0" encoding="UTF-8"?><svg id="a" xmlns="http://www.w3.org/2000/svg" viewBox="0 0 32 32"><path d="M4,27.5c-.292,0-.582-.085-.832-.252-.417-.2783-.668-.7461-.668-1.248v-7c0-.6621.4346-1.2461,1.0693-1.4365l5.2109-1.5635-5.2109-1.5635c-.6348-.1904-1.0693-.7744-1.0693-1.4365v-7c0-.502.251-.9697.668-1.248.417-.2793.9453-.3291,1.4092-.1367l24,10c.5586.2334.9229.7793.9229,1.3848s-.3643,1.1514-.9229,1.3848L4.5771,27.3848c-.1855.0771-.3818.1152-.5771.1152ZM5.5,20.1162v3.6338l18.5996-7.75L5.5,8.25v3.6338l8.9307,2.6797c.6348.1904,1.0693.7744,1.0693,1.4365s-.4346,1.2461-1.0693,1.4365l-8.9307,2.6797Z" fill="#000" stroke-width="0"/></svg>