<?xml version="1.0" encoding="UTF-8"?><svg id="a" xmlns="http://www.w3.org/2000/svg" viewBox="0 0 32 32"><path d="M4,29.5c-.2744,0-.5479-.0752-.7891-.2236-.4414-.2734-.7109-.7568-.7109-1.2764v-9c0-.6455.4131-1.2188,1.0254-1.4229l4.7314-1.5771-4.7314-1.5771c-.6123-.2041-1.0254-.7773-1.0254-1.4229V4c0-.5195.2695-1.0029.7109-1.2764.4424-.2725.9951-.2969,1.46-.0654l24,12c.5078.2539.8291.7734.8291,1.3418s-.3213,1.0879-.8291,1.3418L4.6709,29.3418c-.2119.1055-.4414.1582-.6709.1582ZM5.5,20.0811v5.4922l19.1455-9.5732L5.5,6.4268v5.4922l7.9746,2.6582c.6123.2041,1.0254.7773,1.0254,1.4229s-.4131,1.2188-1.0254,1.4229l-7.9746,2.6582Z"/></svg>