<?xml version="1.0" encoding="UTF-8"?><svg id="a" xmlns="http://www.w3.org/2000/svg" viewBox="0 0 32 32"><path d="M22.5,26c-.83,0-1.5-.67-1.5-1.5V7.5c0-.83,.67-1.5,1.5-1.5s1.5,.67,1.5,1.5V24.5c0,.83-.67,1.5-1.5,1.5Z"/><path d="M22.5,26c-.32,0-.63-.1-.9-.3l-4-3c-.66-.5-.8-1.44-.3-2.1,.5-.66,1.44-.79,2.1-.3l3.1,2.33,3.1-2.33c.67-.5,1.6-.36,2.1,.3,.5,.66,.36,1.6-.3,2.1l-4,3c-.27,.2-.58,.3-.9,.3Z"/><path d="M9.5,26c-.83,0-1.5-.67-1.5-1.5V7.5c0-.83,.67-1.5,1.5-1.5s1.5,.67,1.5,1.5V24.5c0,.83-.67,1.5-1.5,1.5Z"/><path d="M13.5,12c-.31,0-.63-.1-.9-.3l-3.1-2.33-3.1,2.33c-.66,.5-1.6,.36-2.1-.3s-.36-1.6,.3-2.1l4-3c.53-.4,1.27-.4,1.8,0l4,3c.66,.5,.8,1.44,.3,2.1-.29,.39-.75,.6-1.2,.6Z"/></svg>