<?xml version="1.0" encoding="UTF-8"?><svg id="a" xmlns="http://www.w3.org/2000/svg" viewBox="0 0 32 32"><path d="M22.5,26c-.8281,0-1.5-.6719-1.5-1.5V7.5c0-.8281,.6719-1.5,1.5-1.5s1.5,.6719,1.5,1.5V24.5c0,.8281-.6719,1.5-1.5,1.5Z"/><path d="M22.5,26c-.3164,0-.6338-.0996-.9004-.2998l-4-3c-.6621-.4971-.7969-1.4375-.2998-2.1006,.498-.6621,1.4375-.7949,2.1006-.2998l3.0996,2.3252,3.0996-2.3252c.665-.4951,1.6035-.3623,2.1006,.2998,.4971,.6631,.3623,1.6035-.2998,2.1006l-4,3c-.2666,.2002-.584,.2998-.9004,.2998Z"/><path d="M9.5,26c-.8281,0-1.5-.6719-1.5-1.5V7.5c0-.8281,.6719-1.5,1.5-1.5s1.5,.6719,1.5,1.5V24.5c0,.8281-.6719,1.5-1.5,1.5Z"/><path d="M13.499,12c-.3135,0-.6289-.0977-.8994-.2998l-3.0996-2.3252-3.0996,2.3252c-.6641,.4971-1.6035,.3633-2.1006-.2998s-.3623-1.6035,.2998-2.1006l4-3c.5332-.4004,1.2676-.4004,1.8008,0l4,3c.6621,.4971,.7969,1.4375,.2998,2.1006-.2949,.3926-.7451,.5996-1.2012,.5996Z"/></svg>