<?xml version="1.0" encoding="UTF-8"?><svg id="a" xmlns="http://www.w3.org/2000/svg" viewBox="0 0 32 32"><path id="b" d="M24.52,30.62c-.23,0-.46-.05-.67-.16l-7.86-3.9-7.86,3.9c-.5,.25-1.1,.2-1.55-.13-.45-.33-.68-.88-.6-1.43l1.28-8.68L1.14,13.95c-.39-.4-.53-.98-.36-1.51,.17-.53,.63-.92,1.18-1.01l8.65-1.46L14.67,2.19c.26-.49,.77-.8,1.33-.8s1.07,.31,1.33,.8l4.06,7.77,8.65,1.46c.55,.09,1,.48,1.18,1.01,.17,.53,.04,1.11-.36,1.51l-6.14,6.27,1.28,8.68c.08,.55-.15,1.1-.6,1.43-.26,.19-.57,.29-.88,.29Z"/></svg>