<?xml version="1.0" encoding="UTF-8"?><svg id="a" xmlns="http://www.w3.org/2000/svg" viewBox="0 0 32 32"><path id="b" d="M24.5225,30.6152c-.2275,0-.4561-.0518-.667-.1562l-7.8555-3.8994-7.8555,3.8994c-.5,.2471-1.0967,.1982-1.5488-.1299-.4512-.3281-.6836-.8809-.6025-1.4326l1.2812-8.6768L1.1387,13.9541c-.3906-.3994-.5283-.9824-.3555-1.5137,.1729-.5303,.626-.9219,1.1768-1.0146l8.6475-1.4629L14.6709,2.1895c.2588-.4941,.7705-.8047,1.3291-.8047s1.0703,.3105,1.3291,.8047l4.0635,7.7734,8.6475,1.4629c.5508,.0928,1.0039,.4844,1.1768,1.0146,.1729,.5312,.0352,1.1143-.3555,1.5137l-6.1357,6.2656,1.2812,8.6768c.0811,.5518-.1514,1.1045-.6025,1.4326-.2617,.1895-.5703,.2861-.8818,.2861Z"/></svg>