<?xml version="1.0" encoding="UTF-8"?><svg id="a" xmlns="http://www.w3.org/2000/svg" viewBox="0 0 32 32"><path d="M24.5225,30.6152c-.2275,0-.4561-.0518-.667-.1562l-7.8555-3.8994-7.8555,3.8994c-.5.2471-1.0967.1973-1.5488-.1299-.4512-.3281-.6836-.8809-.6025-1.4326l1.2812-8.6768L1.1387,13.9541c-.3906-.3994-.5283-.9824-.3555-1.5137.1729-.5303.626-.9219,1.1768-1.0146l8.6475-1.4629,4.0635-7.7734c.2588-.4941.7705-.8047,1.3291-.8047s1.0703.3105,1.3291.8047l4.0635,7.7734,8.6475,1.4629c.5508.0928,1.0039.4844,1.1768,1.0146.1729.5312.0352,1.1143-.3555,1.5137l-6.1357,6.2656,1.2812,8.6768c.0811.5518-.1514,1.1045-.6025,1.4326-.2617.1895-.5703.2861-.8818.2861ZM16,23.3848c.2285,0,.457.0518.667.1562l5.9521,2.9551-.9707-6.5752c-.0684-.4639.085-.9336.4131-1.2686l4.6494-4.748-6.5527-1.1084c-.4629-.0781-.8623-.3682-1.0791-.7832l-3.0791-5.8896-3.0791,5.8896c-.2168.415-.6162.7051-1.0791.7832l-6.5527,1.1084,4.6494,4.748c.3281.335.4814.8047.4131,1.2686l-.9707,6.5752,5.9521-2.9551c.21-.1045.4385-.1562.667-.1562Z" fill="#000" stroke-width="0"/></svg>