<?xml version="1.0" encoding="UTF-8"?><svg id="a" xmlns="http://www.w3.org/2000/svg" viewBox="0 0 32 32"><path d="M14,22.5c-.4561,0-.8867-.207-1.1709-.563l-4-5c-.5176-.647-.4131-1.5908.2334-2.1084.6504-.5176,1.5928-.4111,2.1084.2344l2.8291,3.5356,6.8291-8.5356c.5166-.6455,1.459-.7529,2.1084-.2344.6465.5176.751,1.4614.2334,2.1084l-8,10c-.2842.356-.7148.563-1.1709.563Z" fill="#000" stroke-width="0"/><path d="M16,32C7.1777,32,0,24.8223,0,16S7.1777,0,16,0s16,7.1777,16,16-7.1777,16-16,16ZM16,3c-7.168,0-13,5.8315-13,13s5.832,13,13,13,13-5.8315,13-13S23.168,3,16,3Z" fill="#000" stroke-width="0"/></svg>