<?xml version="1.0" encoding="UTF-8"?><svg id="a" xmlns="http://www.w3.org/2000/svg" viewBox="0 0 32 32"><path d="M16,22.5c-3.584,0-6.5-2.916-6.5-6.5s2.916-6.5,6.5-6.5,6.5,2.916,6.5,6.5-2.916,6.5-6.5,6.5ZM16,12.5c-1.9297,0-3.5,1.5703-3.5,3.5s1.5703,3.5,3.5,3.5,3.5-1.5703,3.5-3.5-1.5703-3.5-3.5-3.5Z" fill="#000" stroke-width="0"/><path d="M6,17.5h-2c-.8281,0-1.5-.6719-1.5-1.5s.6719-1.5,1.5-1.5h2c.8281,0,1.5.6719,1.5,1.5s-.6719,1.5-1.5,1.5Z" fill="#000" stroke-width="0"/><path d="M28,17.5h-2c-.8281,0-1.5-.6719-1.5-1.5s.6719-1.5,1.5-1.5h2c.8281,0,1.5.6719,1.5,1.5s-.6719,1.5-1.5,1.5Z" fill="#000" stroke-width="0"/><path d="M7.5146,25.9854c-.3838,0-.7676-.1465-1.0605-.4395-.5859-.5859-.5859-1.5352,0-2.1211l1.4141-1.4141c.5859-.5859,1.5352-.5859,2.1211,0s.5859,1.5352,0,2.1211l-1.4141,1.4141c-.293.293-.6768.4395-1.0605.4395Z" fill="#000" stroke-width="0"/><path d="M23.0713,10.4287c-.3838,0-.7676-.1465-1.0605-.4395-.5859-.5859-.5859-1.5352,0-2.1211l1.4141-1.4141c.5859-.5859,1.5352-.5859,2.1211,0s.5859,1.5352,0,2.1211l-1.4141,1.4141c-.293.293-.6768.4395-1.0605.4395Z" fill="#000" stroke-width="0"/><path d="M16,29.5c-.8281,0-1.5-.6719-1.5-1.5v-2c0-.8281.6719-1.5,1.5-1.5s1.5.6719,1.5,1.5v2c0,.8281-.6719,1.5-1.5,1.5Z" fill="#000" stroke-width="0"/><path d="M16,7.5c-.8281,0-1.5-.6719-1.5-1.5v-2c0-.8281.6719-1.5,1.5-1.5s1.5.6719,1.5,1.5v2c0,.8281-.6719,1.5-1.5,1.5Z" fill="#000" stroke-width="0"/><path d="M24.4854,25.9854c-.3838,0-.7676-.1465-1.0605-.4395l-1.4141-1.4141c-.5859-.5859-.5859-1.5352,0-2.1211s1.5352-.5859,2.1211,0l1.4141,1.4141c.5859.5859.5859,1.5352,0,2.1211-.293.293-.6768.4395-1.0605.4395Z" fill="#000" stroke-width="0"/><path d="M8.9287,10.4287c-.3838,0-.7676-.1465-1.0605-.4395l-1.4141-1.4141c-.5859-.5859-.5859-1.5352,0-2.1211s1.5352-.5859,2.1211,0l1.4141,1.4141c.5859.5859.5859,1.5352,0,2.1211-.293.293-.6768.4395-1.0605.4395Z" fill="#000" stroke-width="0"/></svg>