<?xml version="1.0" encoding="UTF-8"?><svg id="a" xmlns="http://www.w3.org/2000/svg" viewBox="0 0 32 32"><path d="M17.88,31.93c-.21,.04-.56,.04-.77,0s-1.31-1-2.09-1.78L3.85,18.97c-.78-.78-1.51-1.56-1.63-1.75s-.22-1.63-.22-2.73V5.5c0-1.1,.15-2.34,.34-2.75s2.06-.75,3.16-.75H14.5c1.1,0,2.18,.04,2.39,.08s1.31,1,2.09,1.77l11.17,11.17c.78,.78,1.55,1.76,1.71,2.18s-.93,1.99-1.71,2.77l-10.17,10.17c-.78,.78-1.88,1.74-2.09,1.78ZM5,13.88c0,1.1,.64,2.64,1.41,3.41l9.67,9.67c.78,.78,2.05,.78,2.83,0l8.05-8.05c.78-.78,.78-2.05,0-2.83L17.29,6.41c-.78-.78-2.31-1.41-3.41-1.41H7c-1.1,0-2,.9-2,2v6.88Z"/><circle cx="12" cy="12" r="2.5"/></svg>