<?xml version="1.0" encoding="UTF-8"?><svg id="a" xmlns="http://www.w3.org/2000/svg" viewBox="0 0 32 32"><path d="M17.8838,31.9268c-.2111,.0403-.5565,.0403-.7676,0s-1.3132-1.0026-2.091-1.7804L3.8537,18.9748c-.7778-.7778-1.5131-1.5634-1.6339-1.7458s-.2197-1.629-.2197-2.729V5.5c0-1.1,.1512-2.3375,.3359-2.75s2.0641-.75,3.1641-.75H14.5c1.1,0,2.1753,.0356,2.3896,.0791s1.3073,.9967,2.0851,1.7746l11.1716,11.1716c.7778,.7778,1.546,1.7596,1.7072,2.1818s-.9294,1.9899-1.7072,2.7677l-10.1716,10.1716c-.7778,.7778-1.8799,1.7401-2.091,1.7804ZM5,13.8789c0,1.1,.6364,2.6364,1.4142,3.4142l9.6716,9.6716c.7778,.7778,2.0506,.7778,2.8284,0l8.0505-8.0505c.7778-.7778,.7778-2.0506,0-2.8284L17.2931,6.4142c-.7778-.7778-2.3142-1.4142-3.4142-1.4142H7c-1.1,0-2,.9-2,2v6.8789Z"/><circle cx="12" cy="12" r="2.5"/></svg>