<?xml version="1.0" encoding="UTF-8"?><svg id="a" xmlns="http://www.w3.org/2000/svg" viewBox="0 0 32 32"><path d="M17.75,23.5H6.75c-.8281,0-1.5-.6714-1.5-1.5s.6719-1.5,1.5-1.5h11c.8281,0,1.5.6714,1.5,1.5s-.6719,1.5-1.5,1.5Z"/><path d="M13.75,16.5h-7c-.8281,0-1.5-.6714-1.5-1.5s.6719-1.5,1.5-1.5h7c.8281,0,1.5.6714,1.5,1.5s-.6719,1.5-1.5,1.5Z"/><path d="M21.75,9.5H6.75c-.8281,0-1.5-.6714-1.5-1.5s.6719-1.5,1.5-1.5h15c.8281,0,1.5.6714,1.5,1.5s-.6719,1.5-1.5,1.5Z"/><path d="M28.5,32H3.5C1.5703,32,0,30.4297,0,28.5V3.5C0,1.5703,1.5703,0,3.5,0h25C30.4297,0,32,1.5703,32,3.5v25c0,1.9297-1.5703,3.5-3.5,3.5ZM3.5,3c-.2754,0-.5.2241-.5.5v25c0,.2759.2246.5.5.5h25c.2754,0,.5-.2241.5-.5V3.5c0-.2759-.2246-.5-.5-.5H3.5Z"/><circle cx="23.25" cy="15" r="2"/><circle cx="23.25" cy="22" r="2"/></svg>