<?xml version="1.0" encoding="UTF-8"?><svg id="a" xmlns="http://www.w3.org/2000/svg" viewBox="0 0 32 32"><path d="M5.5,32.0361h-2c-1.9297,0-3.5-1.5703-3.5-3.5v-15.0361c0-1.9297,1.5703-3.5,3.5-3.5h2c1.9297,0,3.5,1.5703,3.5,3.5v15.0361c0,1.9297-1.5703,3.5-3.5,3.5ZM3.5,13c-.2754,0-.5.2246-.5.5v15.0361c0,.2754.2246.5.5.5h2c.2754,0,.5-.2246.5-.5v-15.0361c0-.2754-.2246-.5-.5-.5h-2Z" fill="#000" stroke-width="0"/><path d="M21.5,32c-2.8428,0-5.8037-.6162-8.416-1.1611-2.1143-.4414-4.1084-.8672-5.5664-.8389h-.0176c-.8203,0-1.4902-.6602-1.5-1.4824-.0098-.8281.6543-1.5078,1.4824-1.5176,1.752-.0186,3.9336.4268,6.2129.9023,2.5918.54,5.2705,1.0977,7.8047,1.0977,4.8359,0,7.5,0,7.5-11.5,0-1.6865-.4102-2.9141-1.2178-3.6494-1.5088-1.3691-4.3506-1.0996-6.0479-.9365-.5078.0488-.9316.0859-1.2344.0859-.4824,0-.9346-.2314-1.2168-.623-.2822-.3906-.3584-.8936-.2061-1.3516,1.2197-3.6592.6885-6.499-.3203-7.5898-.4893-.5283-1.0918-.6797-1.8926-.4805-.8916.2227-1.0352.502-1.2793,2.4922-.332,2.6953-.833,6.7676-7.5283,9.4453-.7676.3096-1.6416-.0654-1.9492-.8359-.3076-.7686.0664-1.6416.8359-1.9492,5.0479-2.0195,5.3604-4.5645,5.6641-7.0264.2344-1.9092.5273-4.2861,3.5283-5.0361,1.874-.4668,3.5811.0127,4.8223,1.3525,1.6963,1.832,2.2363,4.9502,1.5361,8.4395,2.1338-.1504,5.1953-.125,7.3057,1.7939,1.46,1.3271,2.2002,3.3018,2.2002,5.8691,0,12.4062-3.2393,14.5-10.5,14.5Z" fill="#000" stroke-width="0"/></svg>