<?xml version="1.0" encoding="UTF-8"?><svg id="a" xmlns="http://www.w3.org/2000/svg" viewBox="0 0 32 32"><path d="M28.5,22h-2c-1.9297,0-3.5-1.5703-3.5-3.5V3.5c0-1.9297,1.5703-3.5,3.5-3.5h2c1.9297,0,3.5,1.5703,3.5,3.5v15c0,1.9297-1.5703,3.5-3.5,3.5ZM26.5,3c-.2754,0-.5.2246-.5.5v15c0,.2754.2246.5.5.5h2c.2754,0,.5-.2246.5-.5V3.5c0-.2754-.2246-.5-.5-.5h-2Z" fill="#000" stroke-width="0"/><path d="M14.5,32.1289c-1.3301,0-2.5264-.5205-3.458-1.5264-1.6963-1.832-2.2363-4.9502-1.5361-8.4395-2.1328.1494-5.1953.125-7.3057-1.7939-1.46-1.3271-2.2002-3.3018-2.2002-5.8691C0,2.0938,3.2393,0,10.5,0c2.8428,0,5.8037.6162,8.416,1.1611,2.0723.4316,4.0322.8398,5.4795.8398.0352,0,.0684-.002.1045-.001.8203,0,1.4902.6602,1.5,1.4824.0098.8281-.6543,1.5078-1.4824,1.5176-1.7686.0098-3.9336-.4277-6.2129-.9023-2.5918-.54-5.2705-1.0977-7.8047-1.0977-4.8359,0-7.5,0-7.5,11.5,0,1.6865.4102,2.9141,1.2178,3.6494,1.5078,1.3691,4.3496,1.0977,6.0479.9365.5078-.0488.9316-.0859,1.2344-.0859.4824,0,.9346.2314,1.2168.623.2822.3906.3584.8936.2061,1.3516-1.2197,3.6592-.6885,6.499.3203,7.5898.4902.5293,1.0928.6816,1.8926.4805.8916-.2227,1.0352-.502,1.2793-2.4922.332-2.6953.833-6.7676,7.5283-9.4453.7676-.3076,1.6416.0664,1.9492.8359.3076.7686-.0664,1.6416-.8359,1.9492-5.0479,2.0195-5.3604,4.5645-5.6641,7.0264-.2344,1.9092-.5273,4.2861-3.5283,5.0361-.4668.1162-.9229.1738-1.3643.1738Z" fill="#000" stroke-width="0"/></svg>