<?xml version="1.0" encoding="UTF-8"?><svg id="a" xmlns="http://www.w3.org/2000/svg" viewBox="0 0 32 32"><path d="M29.33,30.86c-.38,0-.77-.15-1.06-.44l-8.13-8.13c-.59-.59-.59-1.54,0-2.12s1.54-.59,2.12,0l8.13,8.13c.59,.59,.59,1.54,0,2.12-.29,.29-.68,.44-1.06,.44Z"/><path d="M14.07,28.91c-.32,0-.64-.04-.95-.13-1.23-.35-2.17-1.33-2.48-2.57l-1.18-5.08c-.44-1.9-1.75-3.52-3.52-4.34l-2.72-1.26c-1.04-.48-1.78-1.45-1.99-2.57-.21-1.13,.15-2.29,.96-3.12L9.91,2.17c.86-.82,2.03-1.17,3.16-.96,1.13,.22,2.08,.96,2.55,2l1.24,2.74c.82,1.8,2.39,3.09,4.3,3.55l5.05,1.22c1.26,.32,2.25,1.27,2.58,2.5,.34,1.22-.01,2.54-.91,3.44l-11.32,11.22c-.67,.67-1.58,1.03-2.5,1.03Zm-1.66-24.76c-.14,0-.29,.06-.4,.17l-7.7,7.63c-.11,.11-.16,.29-.13,.46,.03,.17,.14,.31,.3,.39l2.72,1.26c2.6,1.21,4.54,3.6,5.18,6.39l1.18,5.06c.04,.18,.19,.33,.37,.38,.18,.05,.38,0,.53-.14l11.31-11.22c.13-.13,.19-.33,.14-.52-.05-.19-.2-.33-.41-.38l-5.03-1.21c-2.82-.67-5.13-2.58-6.33-5.22l-1.24-2.75c-.07-.15-.21-.26-.38-.29-.03,0-.07,0-.1,0Z"/></svg>