<?xml version="1.0" encoding="UTF-8"?><svg id="a" xmlns="http://www.w3.org/2000/svg" viewBox="0 0 32 32"><path d="M29.3281,30.8574c-.3838,0-.7676-.1465-1.0605-.4395l-8.1318-8.1318c-.5859-.5859-.5859-1.5352,0-2.1211s1.5352-.5859,2.1211,0l8.1318,8.1318c.5859,.5859,.5859,1.5352,0,2.1211-.293,.293-.6768,.4395-1.0605,.4395Z"/><path d="M14.0703,28.9072c-.3184,0-.6387-.043-.9521-.1318-1.2256-.3457-2.1748-1.332-2.4775-2.5732l-1.1826-5.0801c-.4385-1.8965-1.7539-3.5195-3.5215-4.3428l-2.7207-1.2588c-1.041-.4834-1.7822-1.4453-1.9863-2.5732-.2051-1.1309,.1523-2.2949,.9551-3.1152L9.9141,2.165c.8555-.8223,2.0293-1.1738,3.1582-.96,1.127,.2158,2.0811,.9639,2.5527,2.002l1.2422,2.7432c.8203,1.7959,2.3896,3.0908,4.3047,3.5488l5.0459,1.2178c1.2617,.3154,2.2461,1.2725,2.582,2.501,.3369,1.2178-.0127,2.5361-.9121,3.4375l-11.3203,11.2246c-.6738,.667-1.5771,1.0273-2.4971,1.0273Zm-1.6582-24.7646c-.1445,0-.2871,.0596-.4023,.1699l-7.6973,7.6348c-.1084,.1104-.1631,.29-.1318,.4648,.0312,.1699,.1426,.3145,.2979,.3867l2.7217,1.2598c2.6016,1.2119,4.5361,3.5986,5.1807,6.3857l1.1777,5.0625c.043,.1768,.1885,.3291,.374,.3818,.1846,.0508,.3848-.002,.5254-.1416l11.3125-11.2168c.1328-.1338,.1875-.333,.1377-.5166-.0527-.1904-.2041-.333-.4062-.3838l-5.0303-1.2139c-2.8174-.6738-5.127-2.5781-6.335-5.2236l-1.2432-2.7451c-.0693-.1514-.2129-.2627-.3838-.2949-.0322-.0068-.0654-.0098-.0977-.0098Z"/></svg>