<?xml version="1.0" encoding="UTF-8"?><svg id="a" xmlns="http://www.w3.org/2000/svg" viewBox="0 0 32 32"><path d="M20.499,31c-.7881,0-1.4482-.6143-1.4961-1.4102l-.4219-7.042c-.0801-1.3105,.5859-2.5488,1.7373-3.2305,2.5801-1.5254,4.1816-4.3291,4.1816-7.3174,0-2.7168-1.3223-5.2725-3.5-6.8613v3.9414c0,1.0234-.4453,1.9922-1.2227,2.6572l-1.499,1.2861c-1.3213,1.1309-3.2383,1.1289-4.5557,.001l-1.501-1.2871c-.7764-.665-1.2217-1.6338-1.2217-2.6572v-3.9414c-2.1787,1.5889-3.5,4.1455-3.5,6.8613,0,2.9883,1.6016,5.792,4.1807,7.3164,1.1523,.6826,1.8184,1.9209,1.7383,3.2324l-.4219,7.041c-.0498,.8252-.7422,1.46-1.5869,1.4072-.8271-.0488-1.457-.7598-1.4072-1.5869l.4219-7.042c.0107-.1846-.0938-.3643-.2725-.4707-3.4863-2.0605-5.6523-5.8535-5.6523-9.8975,0-4.0732,2.1934-7.8789,5.7236-9.9326,.7783-.4512,1.7461-.457,2.5244-.0088,.7842,.4502,1.252,1.2598,1.252,2.1641v4.8574c0,.1465,.0635,.2842,.1738,.3799l1.501,1.2861c.1865,.1592,.4609,.1621,.6514-.001l1.499-1.2852c.1113-.0957,.1748-.2334,.1748-.3799V4.2227c0-.9043,.4678-1.7139,1.252-2.1641,.7793-.4482,1.7461-.4434,2.5254,.0098,3.5293,2.0527,5.7227,5.8584,5.7227,9.9316,0,4.0439-2.166,7.8369-5.6533,9.8984-.1777,.1055-.2822,.2852-.2715,.4688l.4219,7.043c.0498,.8271-.5801,1.5381-1.4072,1.5869-.0303,.002-.0615,.0029-.0908,.0029Z"/></svg>