<?xml version="1.0" encoding="UTF-8"?><svg id="a" xmlns="http://www.w3.org/2000/svg" viewBox="0 0 32 32"><path d="M20.5,31c-.79,0-1.45-.61-1.5-1.41l-.42-7.04c-.08-1.31,.59-2.55,1.74-3.23,2.58-1.53,4.18-4.33,4.18-7.32,0-2.72-1.32-5.27-3.5-6.86v3.94c0,1.02-.45,1.99-1.22,2.66l-1.5,1.29c-1.32,1.13-3.24,1.13-4.56,0l-1.5-1.29c-.78-.67-1.22-1.63-1.22-2.66v-3.94c-2.18,1.59-3.5,4.15-3.5,6.86,0,2.99,1.6,5.79,4.18,7.32,1.15,.68,1.82,1.92,1.74,3.23l-.42,7.04c-.05,.83-.74,1.46-1.59,1.41-.83-.05-1.46-.76-1.41-1.59l.42-7.04c.01-.18-.09-.36-.27-.47-3.49-2.06-5.65-5.85-5.65-9.9S6.69,4.12,10.22,2.07c.78-.45,1.75-.46,2.52,0,.78,.45,1.25,1.26,1.25,2.16v4.86c0,.15,.06,.28,.17,.38l1.5,1.29c.19,.16,.46,.16,.65,0l1.5-1.29c.11-.1,.17-.23,.17-.38V4.22c0-.9,.47-1.71,1.25-2.16,.78-.45,1.75-.44,2.53,0,3.53,2.05,5.72,5.86,5.72,9.93s-2.17,7.84-5.65,9.9c-.18,.11-.28,.29-.27,.47l.42,7.04c.05,.83-.58,1.54-1.41,1.59-.03,0-.06,0-.09,0Z"/></svg>