<?xml version="1.0" encoding="UTF-8"?><svg id="a" xmlns="http://www.w3.org/2000/svg" viewBox="0 0 32 32"><path d="M27,9.5H5c-.83,0-1.5-.67-1.5-1.5s.67-1.5,1.5-1.5H27c.83,0,1.5,.67,1.5,1.5s-.67,1.5-1.5,1.5Z"/><path d="M21,32H11c-1.87,0-3.51-1.45-3.73-3.31l-1.76-14.51c-.1-.82,.49-1.57,1.31-1.67,.82-.1,1.57,.49,1.67,1.31l1.76,14.51c.04,.34,.41,.67,.75,.67h10c.34,0,.71-.33,.75-.67l1.76-14.52c.1-.82,.84-1.41,1.67-1.31,.82,.1,1.41,.85,1.31,1.67l-1.76,14.51c-.22,1.85-1.86,3.3-3.73,3.3Z"/><path d="M21,9.5c-.83,0-1.5-.67-1.5-1.5V3.5c0-.27-.23-.5-.5-.5h-6c-.27,0-.5,.23-.5,.5v4.5c0,.83-.67,1.5-1.5,1.5s-1.5-.67-1.5-1.5V3.5c0-1.93,1.57-3.5,3.5-3.5h6c1.93,0,3.5,1.57,3.5,3.5v4.5c0,.83-.67,1.5-1.5,1.5Z"/></svg>