<?xml version="1.0" encoding="UTF-8"?><svg id="a" xmlns="http://www.w3.org/2000/svg" viewBox="0 0 32 32"><path d="M27,9.5H5c-.8281,0-1.5-.6714-1.5-1.5s.6719-1.5,1.5-1.5H27c.8281,0,1.5,.6714,1.5,1.5s-.6719,1.5-1.5,1.5Z"/><path d="M21,32H11c-1.8672,0-3.5059-1.4521-3.7295-3.3057l-1.7598-14.5137c-.0996-.8228,.4863-1.5698,1.3086-1.6699,.8232-.0972,1.5693,.4854,1.6699,1.3086l1.7598,14.5146c.04,.3364,.4121,.666,.751,.666h10c.3389,0,.7109-.3296,.751-.665l1.7598-14.5156c.1006-.8228,.8447-1.4062,1.6699-1.3086,.8223,.1001,1.4082,.8472,1.3086,1.6699l-1.7598,14.5146c-.2236,1.8525-1.8623,3.3047-3.7295,3.3047Z"/><path d="M21,9.5c-.8281,0-1.5-.6714-1.5-1.5V3.5c0-.271-.2285-.5-.5-.5h-6c-.2715,0-.5,.229-.5,.5v4.5c0,.8286-.6719,1.5-1.5,1.5s-1.5-.6714-1.5-1.5V3.5c0-1.9297,1.5703-3.5,3.5-3.5h6c1.9297,0,3.5,1.5703,3.5,3.5v4.5c0,.8286-.6719,1.5-1.5,1.5Z"/></svg>