<?xml version="1.0" encoding="UTF-8"?><svg id="a" xmlns="http://www.w3.org/2000/svg" viewBox="0 0 32 32"><path d="M9.5,29.5c-1.7363,0-3.3682-.6768-4.5957-1.9043s-1.9043-2.8594-1.9043-4.5957,.6768-3.3682,1.9043-4.5957l6.75-6.75c.5859-.5859,1.5352-.5859,2.1211,0s.5859,1.5352,0,2.1211l-6.75,6.75c-.6611,.6611-1.0254,1.54-1.0254,2.4746s.3643,1.8135,1.0254,2.4746c1.3223,1.3223,3.627,1.3223,4.9492,0l2.8291-2.8281c.5859-.5859,1.5352-.5859,2.1211,0s.5859,1.5361,0,2.1211l-2.8291,2.8281c-1.2275,1.2275-2.8594,1.9043-4.5957,1.9043Z"/><path d="M23.0859,16.9854c-.3838,0-.7676-.1465-1.0605-.4395-.5859-.585-.5859-1.5352,0-2.1211l2.9492-2.9502c.6611-.6611,1.0254-1.54,1.0254-2.4746s-.3643-1.8135-1.0254-2.4746c-1.3223-1.3232-3.627-1.3228-4.9492-.0005l-2.8291,2.8286c-.5859,.5859-1.5352,.5859-2.1211,0s-.5859-1.5352,0-2.1211l2.8291-2.8286c1.2275-1.2275,2.8594-1.9038,4.5957-1.9038s3.3682,.6763,4.5957,1.9038,1.9043,2.8599,1.9043,4.5962-.6768,3.3682-1.9043,4.5957l-2.9492,2.9502c-.293,.293-.6768,.4395-1.0605,.4395Z"/><path d="M24,25.5c-.3838,0-.7676-.1465-1.0605-.4395L6.9395,9.0605c-.5859-.5859-.5859-1.5352,0-2.1211s1.5352-.5859,2.1211,0L25.0605,22.9395c.5859,.5859,.5859,1.5352,0,2.1211-.293,.293-.6768,.4395-1.0605,.4395Z"/></svg>