<?xml version="1.0" encoding="UTF-8"?><svg id="a" xmlns="http://www.w3.org/2000/svg" viewBox="0 0 32 32"><path d="M9.5,29.5c-1.74,0-3.37-.68-4.6-1.9s-1.9-2.86-1.9-4.6,.68-3.37,1.9-4.6l6.75-6.75c.59-.59,1.54-.59,2.12,0s.59,1.54,0,2.12l-6.75,6.75c-.66,.66-1.03,1.54-1.03,2.47s.36,1.81,1.03,2.47c1.32,1.32,3.63,1.32,4.95,0l2.83-2.83c.59-.59,1.54-.59,2.12,0s.59,1.54,0,2.12l-2.83,2.83c-1.23,1.23-2.86,1.9-4.6,1.9Z"/><path d="M23.09,16.99c-.38,0-.77-.15-1.06-.44-.59-.58-.59-1.54,0-2.12l2.95-2.95c.66-.66,1.03-1.54,1.03-2.47s-.36-1.81-1.03-2.47c-1.32-1.32-3.63-1.32-4.95,0l-2.83,2.83c-.59,.59-1.54,.59-2.12,0s-.59-1.54,0-2.12l2.83-2.83c1.23-1.23,2.86-1.9,4.6-1.9s3.37,.68,4.6,1.9,1.9,2.86,1.9,4.6-.68,3.37-1.9,4.6l-2.95,2.95c-.29,.29-.68,.44-1.06,.44Z"/><path d="M24,25.5c-.38,0-.77-.15-1.06-.44L6.94,9.06c-.59-.59-.59-1.54,0-2.12s1.54-.59,2.12,0L25.06,22.94c.59,.59,.59,1.54,0,2.12-.29,.29-.68,.44-1.06,.44Z"/></svg>