<?xml version="1.0" encoding="UTF-8"?><svg id="a" xmlns="http://www.w3.org/2000/svg" viewBox="0 0 32 32"><path d="M21.0518,25.5H2.9482C1.3223,25.5,0,24.1436,0,22.4766v-12.9531C0,7.8564,1.3223,6.5,2.9482,6.5h18.1035c1.626,0,2.9482,1.3564,2.9482,3.0234v12.9531c0,1.667-1.3223,3.0234-2.9482,3.0234ZM2.9482,9.5l.0518,1.7314v11.2451l17.9883.0234.0117-12.9766-18.0518-.0234Z"/><path d="M30.5,23c-.1211,0-.2432-.0146-.3643-.0449l-8-2c-.667-.167-1.1357-.7666-1.1357-1.4551v-7c0-.6885.4688-1.2881,1.1357-1.4551l8-2c.4521-.1123.9229-.0117,1.2871.2725s.5771.7207.5771,1.1826v11c0,.4619-.2129.8984-.5771,1.1826-.2666.208-.5918.3174-.9229.3174ZM24,18.3291l5,1.25v-7.1582l-5,1.25v4.6582Z"/></svg>