<?xml version="1.0" encoding="UTF-8"?><svg id="a" xmlns="http://www.w3.org/2000/svg" viewBox="0 0 32 32"><path d="M29.5,32H2.5c-.7939,0-1.4678-.355-1.8506-.9741s-.3984-1.3813-.0439-2.0913L14.2109,1.7236c.375-.7505,1.0439-1.1982,1.7891-1.1982s1.4141,.4478,1.7891,1.1982l13.6055,27.2109c.3545,.71,.3389,1.4722-.0439,2.0913s-1.0566,.9741-1.8506,.9741ZM3.9268,29H28.0732L16,4.854,3.9268,29Z"/><path d="M16,20c-.8281,0-1.5-.6714-1.5-1.5v-4.5c0-.8286,.6719-1.5,1.5-1.5s1.5,.6714,1.5,1.5v4.5c0,.8286-.6719,1.5-1.5,1.5Z"/><circle cx="16" cy="24" r="2"/></svg>